<svg width="278" height="440" viewBox="0 0 278 440" fill="none" xmlns="http://www.w3.org/2000/svg">
<path opacity="0.5" d="M269.35 315.593L263.98 308.303L269.35 300.025L274.719 308.303L269.35 315.593Z" fill="#F3F3F4"/>
<path opacity="0.5" d="M261.566 331.161L256.197 323.871L261.566 315.593L266.936 323.871L261.566 331.161Z" fill="#F3F3F4"/>
<path d="M254.153 315.593L248.784 308.303L254.153 300.025L259.523 308.303L254.153 315.593Z" fill="#F3F3F4"/>
<path d="M245.998 331.161L240.628 323.871L245.998 315.593L251.368 323.871L245.998 331.161Z" fill="#F3F3F4"/>
<path opacity="0.5" d="M238.215 346.729L232.845 339.438L238.215 331.161L243.585 339.438L238.215 346.729Z" fill="#F3F3F4"/>
<path opacity="0.5" d="M230.801 331.161L225.431 323.871L230.801 315.593L236.171 323.871L230.801 331.161Z" fill="#F3F3F4"/>
<path d="M245.998 300.025L240.628 292.735L245.998 284.457L251.368 292.735L245.998 300.025Z" fill="#F3F3F4"/>
<path opacity="0.5" d="M238.215 315.593L232.845 308.303L238.215 300.025L243.585 308.303L238.215 315.593Z" fill="#F3F3F4"/>
<path d="M230.801 300.025L225.431 292.735L230.801 284.457L236.171 292.735L230.801 300.025Z" fill="#F3F3F4"/>
<path d="M177.055 220.703L171.685 213.413L177.055 205.136L182.425 213.413L177.055 220.703Z" fill="#F3F3F4"/>
<path d="M169.271 236.271L163.902 228.981L169.271 220.703L174.641 228.981L169.271 236.271Z" fill="#F3F3F4"/>
<path opacity="0.5" d="M161.858 220.703L156.489 213.413L161.858 205.136L167.228 213.413L161.858 220.703Z" fill="#F3F3F4"/>
<path d="M153.703 236.271L148.333 228.981L153.703 220.703L159.073 228.981L153.703 236.271Z" fill="#F3F3F4"/>
<path d="M145.92 251.839L140.55 244.549L145.92 236.271L151.29 244.549L145.92 251.839Z" fill="#F3F3F4"/>
<path opacity="0.5" d="M138.506 236.271L133.136 228.981L138.506 220.703L143.876 228.981L138.506 236.271Z" fill="#F3F3F4"/>
<path d="M153.703 205.135L148.333 197.845L153.703 189.568L159.073 197.845L153.703 205.135Z" fill="#F3F3F4"/>
<path d="M145.92 220.703L140.55 213.413L145.92 205.136L151.29 213.413L145.92 220.703Z" fill="#F3F3F4"/>
<path d="M145.178 189.568L139.808 182.278L145.178 174L150.548 182.278L145.178 189.568Z" fill="#F3F3F4"/>
<path d="M191.882 251.839L186.512 244.549L191.882 236.271L197.252 244.549L191.882 251.839Z" fill="#F3F3F4"/>
<path opacity="0.5" d="M191.882 282.975L186.512 275.685L191.882 267.407L197.252 275.685L191.882 282.975Z" fill="#F3F3F4"/>
<path d="M183.727 268.89L178.357 261.599L183.727 253.322L189.096 261.599L183.727 268.89Z" fill="#F3F3F4"/>
<path d="M176.313 284.457L170.944 277.167L176.313 268.889L181.683 277.167L176.313 284.457Z" fill="#F3F3F4"/>
<path d="M168.53 300.025L163.16 292.735L168.53 284.457L173.9 292.735L168.53 300.025Z" fill="#F3F3F4"/>
<path d="M161.116 284.457L155.746 277.167L161.116 268.889L166.486 277.167L161.116 284.457Z" fill="#F3F3F4"/>
<path d="M214.862 220.703L209.492 213.413L214.862 205.136L220.232 213.413L214.862 220.703Z" fill="#F3F3F4"/>
<path opacity="0.5" d="M183.727 234.789L178.357 227.498L183.727 219.221L189.096 227.498L183.727 234.789Z" fill="#F3F3F4"/>
<path opacity="0.5" d="M200.777 236.271L195.408 228.981L200.777 220.703L206.147 228.981L200.777 236.271Z" fill="#F3F3F4"/>
<path d="M223.018 315.593L217.648 308.303L223.018 300.025L228.387 308.303L223.018 315.593Z" fill="#F3F3F4"/>
<path opacity="0.5" d="M215.233 331.161L209.864 323.871L215.233 315.593L220.603 323.871L215.233 331.161Z" fill="#F3F3F4"/>
<path d="M207.82 315.593L202.451 308.303L207.82 300.025L213.19 308.303L207.82 315.593Z" fill="#F3F3F4"/>
<path d="M199.665 331.161L194.295 323.871L199.665 315.593L205.035 323.871L199.665 331.161Z" fill="#F3F3F4"/>
<path d="M191.882 346.729L186.512 339.438L191.882 331.161L197.252 339.438L191.882 346.729Z" fill="#F3F3F4"/>
<path d="M184.469 331.161L179.099 323.871L184.469 315.593L189.839 323.871L184.469 331.161Z" fill="#F3F3F4"/>
<path d="M199.665 300.025L194.295 292.735L199.665 284.457L205.035 292.735L199.665 300.025Z" fill="#F3F3F4"/>
<path d="M191.882 315.593L186.512 308.303L191.882 300.025L197.252 308.303L191.882 315.593Z" fill="#F3F3F4"/>
<path opacity="0.5" d="M184.469 300.025L179.099 292.735L184.469 284.457L189.839 292.735L184.469 300.025Z" fill="#F3F3F4"/>
<path d="M222.276 377.864L216.907 370.574L222.276 362.296L227.646 370.574L222.276 377.864Z" fill="#F3F3F4"/>
<path d="M214.492 393.432L209.122 386.142L214.492 377.864L219.862 386.142L214.492 393.432Z" fill="#F3F3F4"/>
<path opacity="0.5" d="M207.079 377.864L201.709 370.574L207.079 362.296L212.449 370.574L207.079 377.864Z" fill="#F3F3F4"/>
<path opacity="0.5" d="M198.924 393.432L193.554 386.142L198.924 377.864L204.294 386.142L198.924 393.432Z" fill="#F3F3F4"/>
<path opacity="0.5" d="M191.141 409L185.771 401.71L191.141 393.432L196.51 401.71L191.141 409Z" fill="#F3F3F4"/>
<path d="M183.727 393.432L178.357 386.142L183.727 377.864L189.096 386.142L183.727 393.432Z" fill="#F3F3F4"/>
<path d="M198.924 362.296L193.554 355.006L198.924 346.729L204.294 355.006L198.924 362.296Z" fill="#F3F3F4"/>
<path d="M191.141 377.864L185.771 370.574L191.141 362.296L196.51 370.574L191.141 377.864Z" fill="#F3F3F4"/>
<path d="M183.727 362.296L178.357 355.006L183.727 346.729L189.096 355.006L183.727 362.296Z" fill="#F3F3F4"/>
<path opacity="0.5" d="M177.055 315.593L171.685 308.303L177.055 300.025L182.425 308.303L177.055 315.593Z" fill="#F3F3F4"/>
<path d="M169.271 331.161L163.902 323.871L169.271 315.593L174.641 323.871L169.271 331.161Z" fill="#F3F3F4"/>
<path d="M161.858 315.593L156.489 308.303L161.858 300.025L167.228 308.303L161.858 315.593Z" fill="#F3F3F4"/>
<path opacity="0.5" d="M153.703 331.161L148.333 323.871L153.703 315.593L159.073 323.871L153.703 331.161Z" fill="#F3F3F4"/>
<path d="M145.92 346.729L140.55 339.438L145.92 331.161L151.29 339.438L145.92 346.729Z" fill="#F3F3F4"/>
<path opacity="0.5" d="M138.506 331.161L133.136 323.871L138.506 315.593L143.876 323.871L138.506 331.161Z" fill="#F3F3F4"/>
<path opacity="0.5" d="M153.703 300.025L148.333 292.735L153.703 284.457L159.073 292.735L153.703 300.025Z" fill="#F3F3F4"/>
<path opacity="0.5" d="M145.92 315.593L140.55 308.303L145.92 300.025L151.29 308.303L145.92 315.593Z" fill="#F3F3F4"/>
<path opacity="0.5" d="M138.506 300.025L133.136 292.735L138.506 284.457L143.876 292.735L138.506 300.025Z" fill="#F3F3F4"/>
<path opacity="0.5" d="M246.739 267.407L241.369 260.117L246.739 251.839L252.109 260.117L246.739 267.407Z" fill="#F3F3F4"/>
<path d="M238.956 282.975L233.586 275.685L238.956 267.407L244.326 275.685L238.956 282.975Z" fill="#F3F3F4"/>
<path d="M231.543 267.407L226.173 260.117L231.543 251.839L236.913 260.117L231.543 267.407Z" fill="#F3F3F4"/>
<path opacity="0.5" d="M223.388 282.975L218.018 275.685L223.388 267.407L228.758 275.685L223.388 282.975Z" fill="#F3F3F4"/>
<path opacity="0.5" d="M215.604 298.542L210.235 291.252L215.604 282.975L220.974 291.252L215.604 298.542Z" fill="#F3F3F4"/>
<path d="M208.19 282.975L202.821 275.685L208.19 267.407L213.56 275.685L208.19 282.975Z" fill="#F3F3F4"/>
<path d="M223.388 251.839L218.018 244.549L223.388 236.271L228.758 244.549L223.388 251.839Z" fill="#F3F3F4"/>
<path opacity="0.5" d="M215.604 267.407L210.235 260.117L215.604 251.839L220.974 260.117L215.604 267.407Z" fill="#F3F3F4"/>
<path d="M208.19 251.839L202.821 244.549L208.19 236.271L213.56 244.549L208.19 251.839Z" fill="#F3F3F4"/>
<path d="M153.333 268.89L147.963 261.599L153.333 253.322L158.703 261.599L153.333 268.89Z" fill="#F3F3F4"/>
<path d="M145.549 284.457L140.179 277.167L145.549 268.889L150.919 277.167L145.549 284.457Z" fill="#F3F3F4"/>
<path opacity="0.5" d="M138.136 268.89L132.766 261.599L138.136 253.322L143.506 261.599L138.136 268.89Z" fill="#F3F3F4"/>
<path d="M129.981 284.457L124.612 277.167L129.981 268.889L135.351 277.167L129.981 284.457Z" fill="#F3F3F4"/>
<path d="M122.197 300.025L116.827 292.735L122.197 284.457L127.567 292.735L122.197 300.025Z" fill="#F3F3F4"/>
<path opacity="0.5" d="M114.784 284.457L109.414 277.167L114.784 268.889L120.154 277.167L114.784 284.457Z" fill="#F3F3F4"/>
<path d="M129.981 253.322L124.612 246.031L129.981 237.754L135.351 246.031L129.981 253.322Z" fill="#F3F3F4"/>
<path d="M122.197 268.89L116.827 261.599L122.197 253.322L127.567 261.599L122.197 268.89Z" fill="#F3F3F4"/>
<path d="M114.784 253.322L109.414 246.031L114.784 237.754L120.154 246.031L114.784 253.322Z" fill="#F3F3F4"/>
<path d="M128.35 346.593L122.98 339.303L128.35 331.025L133.719 339.303L128.35 346.593Z" fill="#F3F3F4"/>
<path opacity="0.5" d="M120.566 362.161L115.197 354.871L120.566 346.593L125.936 354.871L120.566 362.161Z" fill="#F3F3F4"/>
<path d="M113.153 346.593L107.784 339.303L113.153 331.025L118.523 339.303L113.153 346.593Z" fill="#F3F3F4"/>
<path d="M104.998 362.161L99.6282 354.871L104.998 346.593L110.368 354.871L104.998 362.161Z" fill="#F3F3F4"/>
<path d="M97.2148 377.729L91.845 370.438L97.2148 362.161L102.585 370.438L97.2148 377.729Z" fill="#F3F3F4"/>
<path d="M89.8008 362.161L84.431 354.871L89.8008 346.593L95.1706 354.871L89.8008 362.161Z" fill="#F3F3F4"/>
<path d="M104.998 331.025L99.6282 323.735L104.998 315.457L110.368 323.735L104.998 331.025Z" fill="#F3F3F4"/>
<path d="M97.2148 346.593L91.845 339.303L97.2148 331.025L102.585 339.303L97.2148 346.593Z" fill="#F3F3F4"/>
<path d="M89.8008 331.025L84.431 323.735L89.8008 315.457L95.1706 323.735L89.8008 331.025Z" fill="#F3F3F4"/>
<path d="M36.0547 251.703L30.6849 244.413L36.0547 236.136L41.4245 244.413L36.0547 251.703Z" fill="#F3F3F4"/>
<path opacity="0.5" d="M28.2715 267.271L22.9017 259.981L28.2715 251.703L33.6413 259.981L28.2715 267.271Z" fill="#F3F3F4"/>
<path d="M20.8584 251.703L15.4886 244.413L20.8584 236.136L26.2282 244.413L20.8584 251.703Z" fill="#F3F3F4"/>
<path d="M12.7031 267.271L7.33331 259.981L12.7031 251.703L18.0729 259.981L12.7031 267.271Z" fill="#F3F3F4"/>
<path d="M4.91992 282.839L-0.449889 275.549L4.91992 267.271L10.2897 275.549L4.91992 282.839Z" fill="#F3F3F4"/>
<path d="M-2.49414 267.271L-7.86395 259.981L-2.49414 251.703L2.87567 259.981L-2.49414 267.271Z" fill="#F3F3F4"/>
<path opacity="0.5" d="M12.7031 236.135L7.33331 228.845L12.7031 220.568L18.0729 228.845L12.7031 236.135Z" fill="#F3F3F4"/>
<path d="M4.91992 251.703L-0.449889 244.413L4.91992 236.136L10.2897 244.413L4.91992 251.703Z" fill="#F3F3F4"/>
<path d="M4.17773 220.568L-1.19208 213.278L4.17774 205L9.54755 213.278L4.17773 220.568Z" fill="#F3F3F4"/>
<path d="M50.8818 282.839L45.512 275.549L50.8818 267.271L56.2516 275.549L50.8818 282.839Z" fill="#F3F3F4"/>
<path d="M50.8818 313.975L45.512 306.685L50.8818 298.407L56.2516 306.685L50.8818 313.975Z" fill="#F3F3F4"/>
<path d="M42.7266 299.89L37.3568 292.599L42.7266 284.322L48.0964 292.599L42.7266 299.89Z" fill="#F3F3F4"/>
<path d="M35.3135 315.457L29.9437 308.167L35.3135 299.889L40.6833 308.167L35.3135 315.457Z" fill="#F3F3F4"/>
<path d="M27.5303 331.025L22.1605 323.735L27.5303 315.457L32.9001 323.735L27.5303 331.025Z" fill="#F3F3F4"/>
<path opacity="0.5" d="M20.1162 315.457L14.7464 308.167L20.1162 299.889L25.486 308.167L20.1162 315.457Z" fill="#F3F3F4"/>
<path d="M73.8623 251.703L68.4925 244.413L73.8623 236.136L79.2321 244.413L73.8623 251.703Z" fill="#F3F3F4"/>
<path opacity="0.5" d="M42.7266 265.789L37.3568 258.498L42.7266 250.221L48.0964 258.498L42.7266 265.789Z" fill="#F3F3F4"/>
<path d="M59.7773 267.271L54.4075 259.981L59.7773 251.703L65.1472 259.981L59.7773 267.271Z" fill="#F3F3F4"/>
<path opacity="0.5" d="M82.0176 346.593L76.6478 339.303L82.0176 331.025L87.3874 339.303L82.0176 346.593Z" fill="#F3F3F4"/>
<path opacity="0.5" d="M74.2334 362.161L68.8636 354.871L74.2334 346.593L79.6032 354.871L74.2334 362.161Z" fill="#F3F3F4"/>
<path d="M66.8203 346.593L61.4505 339.303L66.8203 331.025L72.1901 339.303L66.8203 346.593Z" fill="#F3F3F4"/>
<path d="M58.665 362.161L53.2952 354.871L58.665 346.593L64.0349 354.871L58.665 362.161Z" fill="#F3F3F4"/>
<path d="M50.8818 377.729L45.512 370.438L50.8818 362.161L56.2516 370.438L50.8818 377.729Z" fill="#F3F3F4"/>
<path d="M43.4688 362.161L38.0989 354.871L43.4688 346.593L48.8386 354.871L43.4688 362.161Z" fill="#F3F3F4"/>
<path d="M58.665 331.025L53.2952 323.735L58.665 315.457L64.0349 323.735L58.665 331.025Z" fill="#F3F3F4"/>
<path d="M50.8818 346.593L45.512 339.303L50.8818 331.025L56.2516 339.303L50.8818 346.593Z" fill="#F3F3F4"/>
<path opacity="0.5" d="M43.4688 331.025L38.0989 323.735L43.4688 315.457L48.8386 323.735L43.4688 331.025Z" fill="#F3F3F4"/>
<path d="M81.2764 408.864L75.9066 401.574L81.2764 393.296L86.6462 401.574L81.2764 408.864Z" fill="#F3F3F4"/>
<path opacity="0.5" d="M73.4922 424.432L68.1224 417.142L73.4922 408.864L78.862 417.142L73.4922 424.432Z" fill="#F3F3F4"/>
<path opacity="0.5" d="M66.0791 408.864L60.7093 401.574L66.0791 393.296L71.4489 401.574L66.0791 408.864Z" fill="#F3F3F4"/>
<path opacity="0.5" d="M57.9238 424.432L52.554 417.142L57.9238 408.864L63.2936 417.142L57.9238 424.432Z" fill="#F3F3F4"/>
<path d="M50.1406 440L44.7708 432.71L50.1406 424.432L55.5104 432.71L50.1406 440Z" fill="#F3F3F4"/>
<path d="M42.7266 424.432L37.3568 417.142L42.7266 408.864L48.0964 417.142L42.7266 424.432Z" fill="#F3F3F4"/>
<path opacity="0.5" d="M57.9238 393.296L52.554 386.006L57.9238 377.729L63.2936 386.006L57.9238 393.296Z" fill="#F3F3F4"/>
<path d="M50.1406 408.864L44.7708 401.574L50.1406 393.296L55.5104 401.574L50.1406 408.864Z" fill="#F3F3F4"/>
<path d="M42.7266 393.296L37.3568 386.006L42.7266 377.729L48.0964 386.006L42.7266 393.296Z" fill="#F3F3F4"/>
<path d="M36.0547 346.593L30.6849 339.303L36.0547 331.025L41.4245 339.303L36.0547 346.593Z" fill="#F3F3F4"/>
<path d="M28.2715 362.161L22.9017 354.871L28.2715 346.593L33.6413 354.871L28.2715 362.161Z" fill="#F3F3F4"/>
<path d="M20.8584 346.593L15.4886 339.303L20.8584 331.025L26.2282 339.303L20.8584 346.593Z" fill="#F3F3F4"/>
<path d="M12.7031 362.161L7.33331 354.871L12.7031 346.593L18.0729 354.871L12.7031 362.161Z" fill="#F3F3F4"/>
<path d="M4.91992 377.729L-0.449889 370.438L4.91992 362.161L10.2897 370.438L4.91992 377.729Z" fill="#F3F3F4"/>
<path d="M-2.49414 362.161L-7.86395 354.871L-2.49414 346.593L2.87567 354.871L-2.49414 362.161Z" fill="#F3F3F4"/>
<path d="M12.7031 331.025L7.33331 323.735L12.7031 315.457L18.0729 323.735L12.7031 331.025Z" fill="#F3F3F4"/>
<path opacity="0.5" d="M4.91992 346.593L-0.449889 339.303L4.91992 331.025L10.2897 339.303L4.91992 346.593Z" fill="#F3F3F4"/>
<path d="M-2.49414 331.025L-7.86395 323.735L-2.49414 315.457L2.87567 323.735L-2.49414 331.025Z" fill="#F3F3F4"/>
<path d="M105.739 298.407L100.369 291.117L105.739 282.839L111.109 291.117L105.739 298.407Z" fill="#F3F3F4"/>
<path d="M97.9561 313.975L92.5862 306.685L97.9561 298.407L103.326 306.685L97.9561 313.975Z" fill="#F3F3F4"/>
<path opacity="0.5" d="M90.543 298.407L85.1732 291.117L90.543 282.839L95.9128 291.117L90.543 298.407Z" fill="#F3F3F4"/>
<path d="M82.3877 313.975L77.0179 306.685L82.3877 298.407L87.7575 306.685L82.3877 313.975Z" fill="#F3F3F4"/>
<path opacity="0.5" d="M74.6045 329.542L69.2347 322.252L74.6045 313.975L79.9743 322.252L74.6045 329.542Z" fill="#F3F3F4"/>
<path d="M67.1904 313.975L61.8206 306.685L67.1904 298.407L72.5602 306.685L67.1904 313.975Z" fill="#F3F3F4"/>
<path d="M82.3877 282.839L77.0179 275.549L82.3877 267.271L87.7575 275.549L82.3877 282.839Z" fill="#F3F3F4"/>
<path d="M74.6045 298.407L69.2347 291.117L74.6045 282.839L79.9743 291.117L74.6045 298.407Z" fill="#F3F3F4"/>
<path opacity="0.5" d="M67.1904 282.839L61.8206 275.549L67.1904 267.271L72.5602 275.549L67.1904 282.839Z" fill="#F3F3F4"/>
<path d="M12.333 299.89L6.9632 292.599L12.333 284.322L17.7028 292.599L12.333 299.89Z" fill="#F3F3F4"/>
<path d="M4.54883 315.457L-0.820983 308.167L4.54883 299.889L9.91864 308.167L4.54883 315.457Z" fill="#F3F3F4"/>
<path d="M-2.86426 299.89L-8.23407 292.599L-2.86426 284.322L2.50555 292.599L-2.86426 299.89Z" fill="#F3F3F4"/>
<path d="M183.35 141.593L177.98 134.303L183.35 126.025L188.719 134.303L183.35 141.593Z" fill="#F3F3F4"/>
<path d="M175.566 157.161L170.197 149.871L175.566 141.593L180.936 149.871L175.566 157.161Z" fill="#F3F3F4"/>
<path d="M168.153 141.593L162.784 134.303L168.153 126.025L173.523 134.303L168.153 141.593Z" fill="#F3F3F4"/>
<path d="M159.998 157.161L154.628 149.871L159.998 141.593L165.368 149.871L159.998 157.161Z" fill="#F3F3F4"/>
<path d="M152.215 172.729L146.845 165.438L152.215 157.161L157.585 165.438L152.215 172.729Z" fill="#F3F3F4"/>
<path d="M144.801 157.161L139.431 149.871L144.801 141.593L150.171 149.871L144.801 157.161Z" fill="#F3F3F4"/>
<path d="M159.998 126.025L154.628 118.735L159.998 110.457L165.368 118.735L159.998 126.025Z" fill="#F3F3F4"/>
<path d="M152.215 141.593L146.845 134.303L152.215 126.025L157.585 134.303L152.215 141.593Z" fill="#F3F3F4"/>
<path d="M144.801 126.025L139.431 118.735L144.801 110.457L150.171 118.735L144.801 126.025Z" fill="#F3F3F4"/>
<path d="M91.0547 46.7034L85.6849 39.4131L91.0547 31.1355L96.4245 39.4131L91.0547 46.7034Z" fill="#F3F3F4"/>
<path d="M83.2715 62.2712L77.9017 54.9809L83.2715 46.7034L88.6413 54.9809L83.2715 62.2712Z" fill="#F3F3F4"/>
<path d="M75.8584 46.7034L70.4886 39.4131L75.8584 31.1355L81.2282 39.4131L75.8584 46.7034Z" fill="#F3F3F4"/>
<path opacity="0.5" d="M67.7031 62.2712L62.3333 54.9809L67.7031 46.7034L73.0729 54.9809L67.7031 62.2712Z" fill="#F3F3F4"/>
<path d="M59.9199 77.8391L54.5501 70.5488L59.9199 62.2713L65.2897 70.5488L59.9199 77.8391Z" fill="#F3F3F4"/>
<path d="M52.5059 62.2712L47.136 54.9809L52.5059 46.7034L57.8757 54.9809L52.5059 62.2712Z" fill="#F3F3F4"/>
<path d="M67.7031 31.1355L62.3333 23.8452L67.7031 15.5677L73.0729 23.8452L67.7031 31.1355Z" fill="#F3F3F4"/>
<path opacity="0.5" d="M59.9199 46.7034L54.5501 39.4131L59.9199 31.1355L65.2897 39.4131L59.9199 46.7034Z" fill="#F3F3F4"/>
<path opacity="0.5" d="M59.1777 15.5679L53.8079 8.27757L59.1777 4.6093e-05L64.5475 8.27757L59.1777 15.5679Z" fill="#F3F3F4"/>
<path opacity="0.5" d="M105.882 77.8391L100.512 70.5488L105.882 62.2713L111.252 70.5488L105.882 77.8391Z" fill="#F3F3F4"/>
<path d="M105.882 108.975L100.512 101.685L105.882 93.407L111.252 101.685L105.882 108.975Z" fill="#F3F3F4"/>
<path d="M97.7266 94.8896L92.3568 87.5994L97.7266 79.3218L103.096 87.5994L97.7266 94.8896Z" fill="#F3F3F4"/>
<path opacity="0.5" d="M90.3135 110.457L84.9437 103.167L90.3135 94.8895L95.6833 103.167L90.3135 110.457Z" fill="#F3F3F4"/>
<path d="M82.5303 126.025L77.1605 118.735L82.5303 110.457L87.9001 118.735L82.5303 126.025Z" fill="#F3F3F4"/>
<path d="M75.1162 110.457L69.7464 103.167L75.1162 94.8895L80.486 103.167L75.1162 110.457Z" fill="#F3F3F4"/>
<path d="M128.862 46.7034L123.492 39.4131L128.862 31.1355L134.232 39.4131L128.862 46.7034Z" fill="#F3F3F4"/>
<path d="M97.7266 60.7886L92.3568 53.4983L97.7266 45.2207L103.096 53.4983L97.7266 60.7886Z" fill="#F3F3F4"/>
<path d="M114.777 62.2712L109.408 54.9809L114.777 46.7034L120.147 54.9809L114.777 62.2712Z" fill="#F3F3F4"/>
<path d="M137.018 141.593L131.648 134.303L137.018 126.025L142.387 134.303L137.018 141.593Z" fill="#F3F3F4"/>
<path d="M129.233 157.161L123.864 149.871L129.233 141.593L134.603 149.871L129.233 157.161Z" fill="#F3F3F4"/>
<path d="M121.82 141.593L116.451 134.303L121.82 126.025L127.19 134.303L121.82 141.593Z" fill="#F3F3F4"/>
<path d="M113.665 157.161L108.295 149.871L113.665 141.593L119.035 149.871L113.665 157.161Z" fill="#F3F3F4"/>
<path d="M105.882 172.729L100.512 165.438L105.882 157.161L111.252 165.438L105.882 172.729Z" fill="#F3F3F4"/>
<path d="M98.4688 157.161L93.0989 149.871L98.4688 141.593L103.839 149.871L98.4688 157.161Z" fill="#F3F3F4"/>
<path d="M113.665 126.025L108.295 118.735L113.665 110.457L119.035 118.735L113.665 126.025Z" fill="#F3F3F4"/>
<path d="M105.882 141.593L100.512 134.303L105.882 126.025L111.252 134.303L105.882 141.593Z" fill="#F3F3F4"/>
<path opacity="0.5" d="M98.4688 126.025L93.0989 118.735L98.4688 110.457L103.839 118.735L98.4688 126.025Z" fill="#F3F3F4"/>
<path d="M136.276 203.864L130.907 196.574L136.276 188.296L141.646 196.574L136.276 203.864Z" fill="#F3F3F4"/>
<path d="M128.492 219.432L123.122 212.142L128.492 203.864L133.862 212.142L128.492 219.432Z" fill="#F3F3F4"/>
<path d="M121.079 203.864L115.709 196.574L121.079 188.296L126.449 196.574L121.079 203.864Z" fill="#F3F3F4"/>
<path opacity="0.5" d="M112.924 219.432L107.554 212.142L112.924 203.864L118.294 212.142L112.924 219.432Z" fill="#F3F3F4"/>
<path d="M105.141 235L99.7708 227.71L105.141 219.432L110.51 227.71L105.141 235Z" fill="#F3F3F4"/>
<path d="M97.7266 219.432L92.3568 212.142L97.7266 203.864L103.096 212.142L97.7266 219.432Z" fill="#F3F3F4"/>
<path d="M112.924 188.296L107.554 181.006L112.924 172.729L118.294 181.006L112.924 188.296Z" fill="#F3F3F4"/>
<path d="M105.141 203.864L99.7708 196.574L105.141 188.296L110.51 196.574L105.141 203.864Z" fill="#F3F3F4"/>
<path d="M97.7266 188.296L92.3568 181.006L97.7266 172.729L103.096 181.006L97.7266 188.296Z" fill="#F3F3F4"/>
<path opacity="0.5" d="M91.0547 141.593L85.6849 134.303L91.0547 126.025L96.4245 134.303L91.0547 141.593Z" fill="#F3F3F4"/>
<path opacity="0.5" d="M83.2715 157.161L77.9017 149.871L83.2715 141.593L88.6413 149.871L83.2715 157.161Z" fill="#F3F3F4"/>
<path d="M75.8584 141.593L70.4886 134.303L75.8584 126.025L81.2282 134.303L75.8584 141.593Z" fill="#F3F3F4"/>
<path d="M67.7031 157.161L62.3333 149.871L67.7031 141.593L73.0729 149.871L67.7031 157.161Z" fill="#F3F3F4"/>
<path opacity="0.5" d="M59.9199 172.729L54.5501 165.438L59.9199 157.161L65.2897 165.438L59.9199 172.729Z" fill="#F3F3F4"/>
<path opacity="0.5" d="M52.5059 157.161L47.136 149.871L52.5059 141.593L57.8757 149.871L52.5059 157.161Z" fill="#F3F3F4"/>
<path d="M67.7031 126.025L62.3333 118.735L67.7031 110.457L73.0729 118.735L67.7031 126.025Z" fill="#F3F3F4"/>
<path opacity="0.5" d="M59.9199 141.593L54.5501 134.303L59.9199 126.025L65.2897 134.303L59.9199 141.593Z" fill="#F3F3F4"/>
<path d="M52.5059 126.025L47.136 118.735L52.5059 110.457L57.8757 118.735L52.5059 126.025Z" fill="#F3F3F4"/>
<path d="M160.739 93.407L155.369 86.1167L160.739 77.8392L166.109 86.1167L160.739 93.407Z" fill="#F3F3F4"/>
<path d="M152.956 108.975L147.586 101.685L152.956 93.407L158.326 101.685L152.956 108.975Z" fill="#F3F3F4"/>
<path d="M145.543 93.407L140.173 86.1167L145.543 77.8392L150.913 86.1167L145.543 93.407Z" fill="#F3F3F4"/>
<path opacity="0.5" d="M137.388 108.975L132.018 101.685L137.388 93.407L142.758 101.685L137.388 108.975Z" fill="#F3F3F4"/>
<path opacity="0.5" d="M129.604 124.542L124.235 117.252L129.604 108.975L134.974 117.252L129.604 124.542Z" fill="#F3F3F4"/>
<path d="M122.19 108.975L116.821 101.685L122.19 93.407L127.56 101.685L122.19 108.975Z" fill="#F3F3F4"/>
<path d="M137.388 77.8391L132.018 70.5488L137.388 62.2713L142.758 70.5488L137.388 77.8391Z" fill="#F3F3F4"/>
<path d="M129.604 93.407L124.235 86.1167L129.604 77.8392L134.974 86.1167L129.604 93.407Z" fill="#F3F3F4"/>
<path opacity="0.5" d="M122.19 77.8391L116.821 70.5488L122.19 62.2713L127.56 70.5488L122.19 77.8391Z" fill="#F3F3F4"/>
<path opacity="0.5" d="M67.333 94.8896L61.9632 87.5994L67.333 79.3218L72.7028 87.5994L67.333 94.8896Z" fill="#F3F3F4"/>
<path opacity="0.5" d="M59.5488 110.457L54.179 103.167L59.5488 94.8895L64.9186 103.167L59.5488 110.457Z" fill="#F3F3F4"/>
<path d="M52.1357 94.8896L46.7659 87.5994L52.1357 79.3218L57.5056 87.5994L52.1357 94.8896Z" fill="#F3F3F4"/>
<path d="M43.9814 110.457L38.6116 103.167L43.9814 94.8895L49.3513 103.167L43.9814 110.457Z" fill="#F3F3F4"/>
<path d="M36.1973 126.025L30.8275 118.735L36.1973 110.457L41.5671 118.735L36.1973 126.025Z" fill="#F3F3F4"/>
<path d="M28.7842 110.457L23.4144 103.167L28.7842 94.8895L34.154 103.167L28.7842 110.457Z" fill="#F3F3F4"/>
<path d="M43.9814 79.3218L38.6116 72.0315L43.9814 63.754L49.3513 72.0315L43.9814 79.3218Z" fill="#F3F3F4"/>
<path opacity="0.5" d="M36.1973 94.8896L30.8275 87.5994L36.1973 79.3218L41.5671 87.5994L36.1973 94.8896Z" fill="#F3F3F4"/>
<path d="M28.7842 79.3218L23.4144 72.0315L28.7842 63.754L34.154 72.0315L28.7842 79.3218Z" fill="#F3F3F4"/>
</svg>
