<svg width="312" height="440" viewBox="0 0 312 440" fill="none" xmlns="http://www.w3.org/2000/svg">
<path opacity="0.5" d="M303.35 315.593L297.98 308.303L303.35 300.025L308.719 308.303L303.35 315.593Z" fill="#F3F3F4"/>
<path opacity="0.5" d="M295.566 331.161L290.197 323.871L295.566 315.593L300.936 323.871L295.566 331.161Z" fill="#F3F3F4"/>
<path d="M288.153 315.593L282.784 308.303L288.153 300.025L293.523 308.303L288.153 315.593Z" fill="#F3F3F4"/>
<path d="M279.998 331.161L274.628 323.871L279.998 315.593L285.368 323.871L279.998 331.161Z" fill="#F3F3F4"/>
<path opacity="0.5" d="M272.215 346.729L266.845 339.438L272.215 331.161L277.585 339.438L272.215 346.729Z" fill="#F3F3F4"/>
<path opacity="0.5" d="M264.801 331.161L259.431 323.871L264.801 315.593L270.171 323.871L264.801 331.161Z" fill="#F3F3F4"/>
<path d="M279.998 300.025L274.628 292.735L279.998 284.457L285.368 292.735L279.998 300.025Z" fill="#F3F3F4"/>
<path opacity="0.5" d="M272.215 315.593L266.845 308.303L272.215 300.025L277.585 308.303L272.215 315.593Z" fill="#F3F3F4"/>
<path d="M264.801 300.025L259.431 292.735L264.801 284.457L270.171 292.735L264.801 300.025Z" fill="#F3F3F4"/>
<path d="M211.055 220.703L205.685 213.413L211.055 205.136L216.425 213.413L211.055 220.703Z" fill="#F3F3F4"/>
<path d="M203.271 236.271L197.902 228.981L203.271 220.703L208.641 228.981L203.271 236.271Z" fill="#F3F3F4"/>
<path opacity="0.5" d="M195.858 220.703L190.489 213.413L195.858 205.136L201.228 213.413L195.858 220.703Z" fill="#F3F3F4"/>
<path d="M187.703 236.271L182.333 228.981L187.703 220.703L193.073 228.981L187.703 236.271Z" fill="#F3F3F4"/>
<path d="M179.92 251.839L174.55 244.549L179.92 236.271L185.29 244.549L179.92 251.839Z" fill="#F3F3F4"/>
<path opacity="0.5" d="M172.506 236.271L167.136 228.981L172.506 220.703L177.876 228.981L172.506 236.271Z" fill="#F3F3F4"/>
<path d="M187.703 205.135L182.333 197.845L187.703 189.568L193.073 197.845L187.703 205.135Z" fill="#F3F3F4"/>
<path d="M179.92 220.703L174.55 213.413L179.92 205.136L185.29 213.413L179.92 220.703Z" fill="#F3F3F4"/>
<path d="M179.178 189.568L173.808 182.278L179.178 174L184.548 182.278L179.178 189.568Z" fill="#F3F3F4"/>
<path d="M225.882 251.839L220.512 244.549L225.882 236.271L231.252 244.549L225.882 251.839Z" fill="#F3F3F4"/>
<path opacity="0.5" d="M225.882 282.975L220.512 275.685L225.882 267.407L231.252 275.685L225.882 282.975Z" fill="#F3F3F4"/>
<path d="M217.727 268.89L212.357 261.599L217.727 253.322L223.096 261.599L217.727 268.89Z" fill="#F3F3F4"/>
<path d="M210.313 284.457L204.944 277.167L210.313 268.889L215.683 277.167L210.313 284.457Z" fill="#F3F3F4"/>
<path d="M202.53 300.025L197.16 292.735L202.53 284.457L207.9 292.735L202.53 300.025Z" fill="#F3F3F4"/>
<path d="M195.116 284.457L189.746 277.167L195.116 268.889L200.486 277.167L195.116 284.457Z" fill="#F3F3F4"/>
<path d="M248.862 220.703L243.492 213.413L248.862 205.136L254.232 213.413L248.862 220.703Z" fill="#F3F3F4"/>
<path opacity="0.5" d="M217.727 234.789L212.357 227.498L217.727 219.221L223.096 227.498L217.727 234.789Z" fill="#F3F3F4"/>
<path opacity="0.5" d="M234.777 236.271L229.408 228.981L234.777 220.703L240.147 228.981L234.777 236.271Z" fill="#F3F3F4"/>
<path d="M257.018 315.593L251.648 308.303L257.018 300.025L262.387 308.303L257.018 315.593Z" fill="#F3F3F4"/>
<path opacity="0.5" d="M249.233 331.161L243.864 323.871L249.233 315.593L254.603 323.871L249.233 331.161Z" fill="#F3F3F4"/>
<path d="M241.82 315.593L236.451 308.303L241.82 300.025L247.19 308.303L241.82 315.593Z" fill="#F3F3F4"/>
<path d="M233.665 331.161L228.295 323.871L233.665 315.593L239.035 323.871L233.665 331.161Z" fill="#F3F3F4"/>
<path d="M225.882 346.729L220.512 339.438L225.882 331.161L231.252 339.438L225.882 346.729Z" fill="#F3F3F4"/>
<path d="M218.469 331.161L213.099 323.871L218.469 315.593L223.839 323.871L218.469 331.161Z" fill="#F3F3F4"/>
<path d="M233.665 300.025L228.295 292.735L233.665 284.457L239.035 292.735L233.665 300.025Z" fill="#F3F3F4"/>
<path d="M225.882 315.593L220.512 308.303L225.882 300.025L231.252 308.303L225.882 315.593Z" fill="#F3F3F4"/>
<path opacity="0.5" d="M218.469 300.025L213.099 292.735L218.469 284.457L223.839 292.735L218.469 300.025Z" fill="#F3F3F4"/>
<path d="M256.276 377.864L250.907 370.574L256.276 362.296L261.646 370.574L256.276 377.864Z" fill="#F3F3F4"/>
<path d="M248.492 393.432L243.122 386.142L248.492 377.864L253.862 386.142L248.492 393.432Z" fill="#F3F3F4"/>
<path opacity="0.5" d="M241.079 377.864L235.709 370.574L241.079 362.296L246.449 370.574L241.079 377.864Z" fill="#F3F3F4"/>
<path opacity="0.5" d="M232.924 393.432L227.554 386.142L232.924 377.864L238.294 386.142L232.924 393.432Z" fill="#F3F3F4"/>
<path opacity="0.5" d="M225.141 409L219.771 401.71L225.141 393.432L230.51 401.71L225.141 409Z" fill="#F3F3F4"/>
<path d="M217.727 393.432L212.357 386.142L217.727 377.864L223.096 386.142L217.727 393.432Z" fill="#F3F3F4"/>
<path d="M232.924 362.296L227.554 355.006L232.924 346.729L238.294 355.006L232.924 362.296Z" fill="#F3F3F4"/>
<path d="M225.141 377.864L219.771 370.574L225.141 362.296L230.51 370.574L225.141 377.864Z" fill="#F3F3F4"/>
<path d="M217.727 362.296L212.357 355.006L217.727 346.729L223.096 355.006L217.727 362.296Z" fill="#F3F3F4"/>
<path opacity="0.5" d="M211.055 315.593L205.685 308.303L211.055 300.025L216.425 308.303L211.055 315.593Z" fill="#F3F3F4"/>
<path d="M203.271 331.161L197.902 323.871L203.271 315.593L208.641 323.871L203.271 331.161Z" fill="#F3F3F4"/>
<path d="M195.858 315.593L190.489 308.303L195.858 300.025L201.228 308.303L195.858 315.593Z" fill="#F3F3F4"/>
<path opacity="0.5" d="M187.703 331.161L182.333 323.871L187.703 315.593L193.073 323.871L187.703 331.161Z" fill="#F3F3F4"/>
<path d="M179.92 346.729L174.55 339.438L179.92 331.161L185.29 339.438L179.92 346.729Z" fill="#F3F3F4"/>
<path opacity="0.5" d="M172.506 331.161L167.136 323.871L172.506 315.593L177.876 323.871L172.506 331.161Z" fill="#F3F3F4"/>
<path opacity="0.5" d="M187.703 300.025L182.333 292.735L187.703 284.457L193.073 292.735L187.703 300.025Z" fill="#F3F3F4"/>
<path opacity="0.5" d="M179.92 315.593L174.55 308.303L179.92 300.025L185.29 308.303L179.92 315.593Z" fill="#F3F3F4"/>
<path opacity="0.5" d="M172.506 300.025L167.136 292.735L172.506 284.457L177.876 292.735L172.506 300.025Z" fill="#F3F3F4"/>
<path opacity="0.5" d="M280.739 267.407L275.369 260.117L280.739 251.839L286.109 260.117L280.739 267.407Z" fill="#F3F3F4"/>
<path d="M272.956 282.975L267.586 275.685L272.956 267.407L278.326 275.685L272.956 282.975Z" fill="#F3F3F4"/>
<path d="M265.543 267.407L260.173 260.117L265.543 251.839L270.913 260.117L265.543 267.407Z" fill="#F3F3F4"/>
<path opacity="0.5" d="M257.388 282.975L252.018 275.685L257.388 267.407L262.758 275.685L257.388 282.975Z" fill="#F3F3F4"/>
<path opacity="0.5" d="M249.604 298.542L244.235 291.252L249.604 282.975L254.974 291.252L249.604 298.542Z" fill="#F3F3F4"/>
<path d="M242.19 282.975L236.821 275.685L242.19 267.407L247.56 275.685L242.19 282.975Z" fill="#F3F3F4"/>
<path d="M257.388 251.839L252.018 244.549L257.388 236.271L262.758 244.549L257.388 251.839Z" fill="#F3F3F4"/>
<path opacity="0.5" d="M249.604 267.407L244.235 260.117L249.604 251.839L254.974 260.117L249.604 267.407Z" fill="#F3F3F4"/>
<path d="M242.19 251.839L236.821 244.549L242.19 236.271L247.56 244.549L242.19 251.839Z" fill="#F3F3F4"/>
<path d="M187.333 268.89L181.963 261.599L187.333 253.322L192.703 261.599L187.333 268.89Z" fill="#F3F3F4"/>
<path d="M179.549 284.457L174.179 277.167L179.549 268.889L184.919 277.167L179.549 284.457Z" fill="#F3F3F4"/>
<path opacity="0.5" d="M172.136 268.89L166.766 261.599L172.136 253.322L177.506 261.599L172.136 268.89Z" fill="#F3F3F4"/>
<path d="M163.981 284.457L158.612 277.167L163.981 268.889L169.351 277.167L163.981 284.457Z" fill="#F3F3F4"/>
<path d="M156.197 300.025L150.827 292.735L156.197 284.457L161.567 292.735L156.197 300.025Z" fill="#F3F3F4"/>
<path opacity="0.5" d="M148.784 284.457L143.414 277.167L148.784 268.889L154.154 277.167L148.784 284.457Z" fill="#F3F3F4"/>
<path d="M163.981 253.322L158.612 246.031L163.981 237.754L169.351 246.031L163.981 253.322Z" fill="#F3F3F4"/>
<path d="M156.197 268.89L150.827 261.599L156.197 253.322L161.567 261.599L156.197 268.89Z" fill="#F3F3F4"/>
<path d="M148.784 253.322L143.414 246.031L148.784 237.754L154.154 246.031L148.784 253.322Z" fill="#F3F3F4"/>
<path d="M162.35 346.593L156.98 339.303L162.35 331.025L167.719 339.303L162.35 346.593Z" fill="#F3F3F4"/>
<path opacity="0.5" d="M154.566 362.161L149.197 354.871L154.566 346.593L159.936 354.871L154.566 362.161Z" fill="#F3F3F4"/>
<path d="M147.153 346.593L141.784 339.303L147.153 331.025L152.523 339.303L147.153 346.593Z" fill="#F3F3F4"/>
<path d="M138.998 362.161L133.628 354.871L138.998 346.593L144.368 354.871L138.998 362.161Z" fill="#F3F3F4"/>
<path d="M131.215 377.729L125.845 370.438L131.215 362.161L136.585 370.438L131.215 377.729Z" fill="#F3F3F4"/>
<path d="M123.801 362.161L118.431 354.871L123.801 346.593L129.171 354.871L123.801 362.161Z" fill="#F3F3F4"/>
<path d="M138.998 331.025L133.628 323.735L138.998 315.457L144.368 323.735L138.998 331.025Z" fill="#F3F3F4"/>
<path d="M131.215 346.593L125.845 339.303L131.215 331.025L136.585 339.303L131.215 346.593Z" fill="#F3F3F4"/>
<path d="M123.801 331.025L118.431 323.735L123.801 315.457L129.171 323.735L123.801 331.025Z" fill="#F3F3F4"/>
<path d="M70.0547 251.703L64.6849 244.413L70.0547 236.136L75.4245 244.413L70.0547 251.703Z" fill="#F3F3F4"/>
<path opacity="0.5" d="M62.2715 267.271L56.9017 259.981L62.2715 251.703L67.6413 259.981L62.2715 267.271Z" fill="#F3F3F4"/>
<path d="M54.8584 251.703L49.4886 244.413L54.8584 236.136L60.2282 244.413L54.8584 251.703Z" fill="#F3F3F4"/>
<path d="M46.7031 267.271L41.3333 259.981L46.7031 251.703L52.0729 259.981L46.7031 267.271Z" fill="#F3F3F4"/>
<path d="M38.9199 282.839L33.5501 275.549L38.9199 267.271L44.2897 275.549L38.9199 282.839Z" fill="#F3F3F4"/>
<path d="M31.5059 267.271L26.136 259.981L31.5059 251.703L36.8757 259.981L31.5059 267.271Z" fill="#F3F3F4"/>
<path opacity="0.5" d="M46.7031 236.135L41.3333 228.845L46.7031 220.568L52.0729 228.845L46.7031 236.135Z" fill="#F3F3F4"/>
<path d="M38.9199 251.703L33.5501 244.413L38.9199 236.136L44.2897 244.413L38.9199 251.703Z" fill="#F3F3F4"/>
<path d="M38.1777 220.568L32.8079 213.278L38.1777 205L43.5475 213.278L38.1777 220.568Z" fill="#F3F3F4"/>
<path d="M84.8818 282.839L79.512 275.549L84.8818 267.271L90.2516 275.549L84.8818 282.839Z" fill="#F3F3F4"/>
<path d="M84.8818 313.975L79.512 306.685L84.8818 298.407L90.2516 306.685L84.8818 313.975Z" fill="#F3F3F4"/>
<path d="M76.7266 299.89L71.3568 292.599L76.7266 284.322L82.0964 292.599L76.7266 299.89Z" fill="#F3F3F4"/>
<path d="M69.3135 315.457L63.9437 308.167L69.3135 299.889L74.6833 308.167L69.3135 315.457Z" fill="#F3F3F4"/>
<path d="M61.5303 331.025L56.1605 323.735L61.5303 315.457L66.9001 323.735L61.5303 331.025Z" fill="#F3F3F4"/>
<path opacity="0.5" d="M54.1162 315.457L48.7464 308.167L54.1162 299.889L59.486 308.167L54.1162 315.457Z" fill="#F3F3F4"/>
<path d="M107.862 251.703L102.492 244.413L107.862 236.136L113.232 244.413L107.862 251.703Z" fill="#F3F3F4"/>
<path opacity="0.5" d="M76.7266 265.789L71.3568 258.498L76.7266 250.221L82.0964 258.498L76.7266 265.789Z" fill="#F3F3F4"/>
<path d="M93.7773 267.271L88.4075 259.981L93.7773 251.703L99.1472 259.981L93.7773 267.271Z" fill="#F3F3F4"/>
<path opacity="0.5" d="M116.018 346.593L110.648 339.303L116.018 331.025L121.387 339.303L116.018 346.593Z" fill="#F3F3F4"/>
<path opacity="0.5" d="M108.233 362.161L102.864 354.871L108.233 346.593L113.603 354.871L108.233 362.161Z" fill="#F3F3F4"/>
<path d="M100.82 346.593L95.4505 339.303L100.82 331.025L106.19 339.303L100.82 346.593Z" fill="#F3F3F4"/>
<path d="M92.665 362.161L87.2952 354.871L92.665 346.593L98.0349 354.871L92.665 362.161Z" fill="#F3F3F4"/>
<path d="M84.8818 377.729L79.512 370.438L84.8818 362.161L90.2516 370.438L84.8818 377.729Z" fill="#F3F3F4"/>
<path d="M77.4688 362.161L72.0989 354.871L77.4688 346.593L82.8386 354.871L77.4688 362.161Z" fill="#F3F3F4"/>
<path d="M92.665 331.025L87.2952 323.735L92.665 315.457L98.0349 323.735L92.665 331.025Z" fill="#F3F3F4"/>
<path d="M84.8818 346.593L79.512 339.303L84.8818 331.025L90.2516 339.303L84.8818 346.593Z" fill="#F3F3F4"/>
<path opacity="0.5" d="M77.4688 331.025L72.0989 323.735L77.4688 315.457L82.8386 323.735L77.4688 331.025Z" fill="#F3F3F4"/>
<path d="M115.276 408.864L109.907 401.574L115.276 393.296L120.646 401.574L115.276 408.864Z" fill="#F3F3F4"/>
<path opacity="0.5" d="M107.492 424.432L102.122 417.142L107.492 408.864L112.862 417.142L107.492 424.432Z" fill="#F3F3F4"/>
<path opacity="0.5" d="M100.079 408.864L94.7093 401.574L100.079 393.296L105.449 401.574L100.079 408.864Z" fill="#F3F3F4"/>
<path opacity="0.5" d="M91.9238 424.432L86.554 417.142L91.9238 408.864L97.2936 417.142L91.9238 424.432Z" fill="#F3F3F4"/>
<path d="M84.1406 440L78.7708 432.71L84.1406 424.432L89.5104 432.71L84.1406 440Z" fill="#F3F3F4"/>
<path d="M76.7266 424.432L71.3568 417.142L76.7266 408.864L82.0964 417.142L76.7266 424.432Z" fill="#F3F3F4"/>
<path opacity="0.5" d="M91.9238 393.296L86.554 386.006L91.9238 377.729L97.2936 386.006L91.9238 393.296Z" fill="#F3F3F4"/>
<path d="M84.1406 408.864L78.7708 401.574L84.1406 393.296L89.5104 401.574L84.1406 408.864Z" fill="#F3F3F4"/>
<path d="M76.7266 393.296L71.3568 386.006L76.7266 377.729L82.0964 386.006L76.7266 393.296Z" fill="#F3F3F4"/>
<path d="M70.0547 346.593L64.6849 339.303L70.0547 331.025L75.4245 339.303L70.0547 346.593Z" fill="#F3F3F4"/>
<path d="M62.2715 362.161L56.9017 354.871L62.2715 346.593L67.6413 354.871L62.2715 362.161Z" fill="#F3F3F4"/>
<path d="M54.8584 346.593L49.4886 339.303L54.8584 331.025L60.2282 339.303L54.8584 346.593Z" fill="#F3F3F4"/>
<path d="M46.7031 362.161L41.3333 354.871L46.7031 346.593L52.0729 354.871L46.7031 362.161Z" fill="#F3F3F4"/>
<path d="M38.9199 377.729L33.5501 370.438L38.9199 362.161L44.2897 370.438L38.9199 377.729Z" fill="#F3F3F4"/>
<path d="M31.5059 362.161L26.136 354.871L31.5059 346.593L36.8757 354.871L31.5059 362.161Z" fill="#F3F3F4"/>
<path d="M46.7031 331.025L41.3333 323.735L46.7031 315.457L52.0729 323.735L46.7031 331.025Z" fill="#F3F3F4"/>
<path opacity="0.5" d="M38.9199 346.593L33.5501 339.303L38.9199 331.025L44.2897 339.303L38.9199 346.593Z" fill="#F3F3F4"/>
<path d="M31.5059 331.025L26.136 323.735L31.5059 315.457L36.8757 323.735L31.5059 331.025Z" fill="#F3F3F4"/>
<path d="M139.739 298.407L134.369 291.117L139.739 282.839L145.109 291.117L139.739 298.407Z" fill="#F3F3F4"/>
<path d="M131.956 313.975L126.586 306.685L131.956 298.407L137.326 306.685L131.956 313.975Z" fill="#F3F3F4"/>
<path opacity="0.5" d="M124.543 298.407L119.173 291.117L124.543 282.839L129.913 291.117L124.543 298.407Z" fill="#F3F3F4"/>
<path d="M116.388 313.975L111.018 306.685L116.388 298.407L121.758 306.685L116.388 313.975Z" fill="#F3F3F4"/>
<path opacity="0.5" d="M108.604 329.542L103.235 322.252L108.604 313.975L113.974 322.252L108.604 329.542Z" fill="#F3F3F4"/>
<path d="M101.19 313.975L95.8206 306.685L101.19 298.407L106.56 306.685L101.19 313.975Z" fill="#F3F3F4"/>
<path d="M116.388 282.839L111.018 275.549L116.388 267.271L121.758 275.549L116.388 282.839Z" fill="#F3F3F4"/>
<path d="M108.604 298.407L103.235 291.117L108.604 282.839L113.974 291.117L108.604 298.407Z" fill="#F3F3F4"/>
<path opacity="0.5" d="M101.19 282.839L95.8206 275.549L101.19 267.271L106.56 275.549L101.19 282.839Z" fill="#F3F3F4"/>
<path d="M46.333 299.89L40.9632 292.599L46.333 284.322L51.7028 292.599L46.333 299.89Z" fill="#F3F3F4"/>
<path d="M38.5488 315.457L33.179 308.167L38.5488 299.889L43.9186 308.167L38.5488 315.457Z" fill="#F3F3F4"/>
<path d="M31.1357 299.89L25.7659 292.599L31.1357 284.322L36.5056 292.599L31.1357 299.89Z" fill="#F3F3F4"/>
<path d="M22.9814 315.457L17.6116 308.167L22.9814 299.889L28.3513 308.167L22.9814 315.457Z" fill="#F3F3F4"/>
<path d="M15.1973 331.025L9.82745 323.735L15.1973 315.457L20.5671 323.735L15.1973 331.025Z" fill="#F3F3F4"/>
<path d="M7.78418 315.457L2.41437 308.167L7.78418 299.889L13.154 308.167L7.78418 315.457Z" fill="#F3F3F4"/>
<path d="M22.9814 284.322L17.6116 277.031L22.9814 268.754L28.3513 277.031L22.9814 284.322Z" fill="#F3F3F4"/>
<path d="M15.1973 299.89L9.82745 292.599L15.1973 284.322L20.5671 292.599L15.1973 299.89Z" fill="#F3F3F4"/>
<path d="M7.78418 284.322L2.41437 277.031L7.78418 268.754L13.154 277.031L7.78418 284.322Z" fill="#F3F3F4"/>
<path d="M217.35 141.593L211.98 134.303L217.35 126.025L222.719 134.303L217.35 141.593Z" fill="#F3F3F4"/>
<path d="M209.566 157.161L204.197 149.871L209.566 141.593L214.936 149.871L209.566 157.161Z" fill="#F3F3F4"/>
<path d="M202.153 141.593L196.784 134.303L202.153 126.025L207.523 134.303L202.153 141.593Z" fill="#F3F3F4"/>
<path d="M193.998 157.161L188.628 149.871L193.998 141.593L199.368 149.871L193.998 157.161Z" fill="#F3F3F4"/>
<path d="M186.215 172.729L180.845 165.438L186.215 157.161L191.585 165.438L186.215 172.729Z" fill="#F3F3F4"/>
<path d="M178.801 157.161L173.431 149.871L178.801 141.593L184.171 149.871L178.801 157.161Z" fill="#F3F3F4"/>
<path d="M193.998 126.025L188.628 118.735L193.998 110.457L199.368 118.735L193.998 126.025Z" fill="#F3F3F4"/>
<path d="M186.215 141.593L180.845 134.303L186.215 126.025L191.585 134.303L186.215 141.593Z" fill="#F3F3F4"/>
<path d="M178.801 126.025L173.431 118.735L178.801 110.457L184.171 118.735L178.801 126.025Z" fill="#F3F3F4"/>
<path d="M125.055 46.7034L119.685 39.4131L125.055 31.1355L130.425 39.4131L125.055 46.7034Z" fill="#F3F3F4"/>
<path d="M117.271 62.2712L111.902 54.9809L117.271 46.7034L122.641 54.9809L117.271 62.2712Z" fill="#F3F3F4"/>
<path d="M109.858 46.7034L104.489 39.4131L109.858 31.1355L115.228 39.4131L109.858 46.7034Z" fill="#F3F3F4"/>
<path opacity="0.5" d="M101.703 62.2712L96.3333 54.9809L101.703 46.7034L107.073 54.9809L101.703 62.2712Z" fill="#F3F3F4"/>
<path d="M93.9199 77.8391L88.5501 70.5488L93.9199 62.2713L99.2897 70.5488L93.9199 77.8391Z" fill="#F3F3F4"/>
<path d="M86.5059 62.2712L81.136 54.9809L86.5059 46.7034L91.8757 54.9809L86.5059 62.2712Z" fill="#F3F3F4"/>
<path d="M101.703 31.1355L96.3333 23.8452L101.703 15.5677L107.073 23.8452L101.703 31.1355Z" fill="#F3F3F4"/>
<path opacity="0.5" d="M93.9199 46.7034L88.5501 39.4131L93.9199 31.1355L99.2897 39.4131L93.9199 46.7034Z" fill="#F3F3F4"/>
<path opacity="0.5" d="M93.1777 15.5679L87.8079 8.27757L93.1777 4.6093e-05L98.5475 8.27757L93.1777 15.5679Z" fill="#F3F3F4"/>
<path opacity="0.5" d="M139.882 77.8391L134.512 70.5488L139.882 62.2713L145.252 70.5488L139.882 77.8391Z" fill="#F3F3F4"/>
<path d="M139.882 108.975L134.512 101.685L139.882 93.407L145.252 101.685L139.882 108.975Z" fill="#F3F3F4"/>
<path d="M131.727 94.8896L126.357 87.5994L131.727 79.3218L137.096 87.5994L131.727 94.8896Z" fill="#F3F3F4"/>
<path opacity="0.5" d="M124.313 110.457L118.944 103.167L124.313 94.8895L129.683 103.167L124.313 110.457Z" fill="#F3F3F4"/>
<path d="M116.53 126.025L111.16 118.735L116.53 110.457L121.9 118.735L116.53 126.025Z" fill="#F3F3F4"/>
<path d="M109.116 110.457L103.746 103.167L109.116 94.8895L114.486 103.167L109.116 110.457Z" fill="#F3F3F4"/>
<path d="M162.862 46.7034L157.492 39.4131L162.862 31.1355L168.232 39.4131L162.862 46.7034Z" fill="#F3F3F4"/>
<path d="M131.727 60.7886L126.357 53.4983L131.727 45.2207L137.096 53.4983L131.727 60.7886Z" fill="#F3F3F4"/>
<path d="M148.777 62.2712L143.408 54.9809L148.777 46.7034L154.147 54.9809L148.777 62.2712Z" fill="#F3F3F4"/>
<path d="M171.018 141.593L165.648 134.303L171.018 126.025L176.387 134.303L171.018 141.593Z" fill="#F3F3F4"/>
<path d="M163.233 157.161L157.864 149.871L163.233 141.593L168.603 149.871L163.233 157.161Z" fill="#F3F3F4"/>
<path d="M155.82 141.593L150.451 134.303L155.82 126.025L161.19 134.303L155.82 141.593Z" fill="#F3F3F4"/>
<path d="M147.665 157.161L142.295 149.871L147.665 141.593L153.035 149.871L147.665 157.161Z" fill="#F3F3F4"/>
<path d="M139.882 172.729L134.512 165.438L139.882 157.161L145.252 165.438L139.882 172.729Z" fill="#F3F3F4"/>
<path d="M132.469 157.161L127.099 149.871L132.469 141.593L137.839 149.871L132.469 157.161Z" fill="#F3F3F4"/>
<path d="M147.665 126.025L142.295 118.735L147.665 110.457L153.035 118.735L147.665 126.025Z" fill="#F3F3F4"/>
<path d="M139.882 141.593L134.512 134.303L139.882 126.025L145.252 134.303L139.882 141.593Z" fill="#F3F3F4"/>
<path opacity="0.5" d="M132.469 126.025L127.099 118.735L132.469 110.457L137.839 118.735L132.469 126.025Z" fill="#F3F3F4"/>
<path d="M170.276 203.864L164.907 196.574L170.276 188.296L175.646 196.574L170.276 203.864Z" fill="#F3F3F4"/>
<path d="M162.492 219.432L157.122 212.142L162.492 203.864L167.862 212.142L162.492 219.432Z" fill="#F3F3F4"/>
<path d="M155.079 203.864L149.709 196.574L155.079 188.296L160.449 196.574L155.079 203.864Z" fill="#F3F3F4"/>
<path opacity="0.5" d="M146.924 219.432L141.554 212.142L146.924 203.864L152.294 212.142L146.924 219.432Z" fill="#F3F3F4"/>
<path d="M139.141 235L133.771 227.71L139.141 219.432L144.51 227.71L139.141 235Z" fill="#F3F3F4"/>
<path d="M131.727 219.432L126.357 212.142L131.727 203.864L137.096 212.142L131.727 219.432Z" fill="#F3F3F4"/>
<path d="M146.924 188.296L141.554 181.006L146.924 172.729L152.294 181.006L146.924 188.296Z" fill="#F3F3F4"/>
<path d="M139.141 203.864L133.771 196.574L139.141 188.296L144.51 196.574L139.141 203.864Z" fill="#F3F3F4"/>
<path d="M131.727 188.296L126.357 181.006L131.727 172.729L137.096 181.006L131.727 188.296Z" fill="#F3F3F4"/>
<path opacity="0.5" d="M125.055 141.593L119.685 134.303L125.055 126.025L130.425 134.303L125.055 141.593Z" fill="#F3F3F4"/>
<path opacity="0.5" d="M117.271 157.161L111.902 149.871L117.271 141.593L122.641 149.871L117.271 157.161Z" fill="#F3F3F4"/>
<path d="M109.858 141.593L104.489 134.303L109.858 126.025L115.228 134.303L109.858 141.593Z" fill="#F3F3F4"/>
<path d="M101.703 157.161L96.3333 149.871L101.703 141.593L107.073 149.871L101.703 157.161Z" fill="#F3F3F4"/>
<path opacity="0.5" d="M93.9199 172.729L88.5501 165.438L93.9199 157.161L99.2897 165.438L93.9199 172.729Z" fill="#F3F3F4"/>
<path opacity="0.5" d="M86.5059 157.161L81.136 149.871L86.5059 141.593L91.8757 149.871L86.5059 157.161Z" fill="#F3F3F4"/>
<path d="M101.703 126.025L96.3333 118.735L101.703 110.457L107.073 118.735L101.703 126.025Z" fill="#F3F3F4"/>
<path opacity="0.5" d="M93.9199 141.593L88.5501 134.303L93.9199 126.025L99.2897 134.303L93.9199 141.593Z" fill="#F3F3F4"/>
<path d="M86.5059 126.025L81.136 118.735L86.5059 110.457L91.8757 118.735L86.5059 126.025Z" fill="#F3F3F4"/>
<path d="M194.739 93.407L189.369 86.1167L194.739 77.8392L200.109 86.1167L194.739 93.407Z" fill="#F3F3F4"/>
<path d="M186.956 108.975L181.586 101.685L186.956 93.407L192.326 101.685L186.956 108.975Z" fill="#F3F3F4"/>
<path d="M179.543 93.407L174.173 86.1167L179.543 77.8392L184.913 86.1167L179.543 93.407Z" fill="#F3F3F4"/>
<path opacity="0.5" d="M171.388 108.975L166.018 101.685L171.388 93.407L176.758 101.685L171.388 108.975Z" fill="#F3F3F4"/>
<path opacity="0.5" d="M163.604 124.542L158.235 117.252L163.604 108.975L168.974 117.252L163.604 124.542Z" fill="#F3F3F4"/>
<path d="M156.19 108.975L150.821 101.685L156.19 93.407L161.56 101.685L156.19 108.975Z" fill="#F3F3F4"/>
<path d="M171.388 77.8391L166.018 70.5488L171.388 62.2713L176.758 70.5488L171.388 77.8391Z" fill="#F3F3F4"/>
<path d="M163.604 93.407L158.235 86.1167L163.604 77.8392L168.974 86.1167L163.604 93.407Z" fill="#F3F3F4"/>
<path opacity="0.5" d="M156.19 77.8391L150.821 70.5488L156.19 62.2713L161.56 70.5488L156.19 77.8391Z" fill="#F3F3F4"/>
<path opacity="0.5" d="M101.333 94.8896L95.9632 87.5994L101.333 79.3218L106.703 87.5994L101.333 94.8896Z" fill="#F3F3F4"/>
<path opacity="0.5" d="M93.5488 110.457L88.179 103.167L93.5488 94.8895L98.9186 103.167L93.5488 110.457Z" fill="#F3F3F4"/>
<path d="M86.1357 94.8896L80.7659 87.5994L86.1357 79.3218L91.5056 87.5994L86.1357 94.8896Z" fill="#F3F3F4"/>
<path d="M77.9814 110.457L72.6116 103.167L77.9814 94.8895L83.3513 103.167L77.9814 110.457Z" fill="#F3F3F4"/>
<path d="M70.1973 126.025L64.8275 118.735L70.1973 110.457L75.5671 118.735L70.1973 126.025Z" fill="#F3F3F4"/>
<path d="M62.7842 110.457L57.4144 103.167L62.7842 94.8895L68.154 103.167L62.7842 110.457Z" fill="#F3F3F4"/>
<path d="M77.9814 79.3218L72.6116 72.0315L77.9814 63.754L83.3513 72.0315L77.9814 79.3218Z" fill="#F3F3F4"/>
<path opacity="0.5" d="M70.1973 94.8896L64.8275 87.5994L70.1973 79.3218L75.5671 87.5994L70.1973 94.8896Z" fill="#F3F3F4"/>
<path d="M62.7842 79.3218L57.4144 72.0315L62.7842 63.754L68.154 72.0315L62.7842 79.3218Z" fill="#F3F3F4"/>
</svg>
