<svg width="261" height="440" viewBox="0 0 261 440" fill="none" xmlns="http://www.w3.org/2000/svg">
<path opacity="0.5" d="M-4.66748 108.839L0.702331 116.129L-4.66748 124.407L-10.0373 116.129L-4.66748 108.839Z" fill="#F3F3F4"/>
<path d="M-4.66748 139.975L0.702331 147.265L-4.66748 155.543L-10.0373 147.265L-4.66748 139.975Z" fill="#F3F3F4"/>
<path d="M49.0786 219.296L54.4484 226.587L49.0786 234.864L43.7088 226.587L49.0786 219.296Z" fill="#F3F3F4"/>
<path d="M56.8618 203.729L62.2316 211.019L56.8618 219.297L51.492 211.019L56.8618 203.729Z" fill="#F3F3F4"/>
<path opacity="0.5" d="M64.2749 219.296L69.6447 226.587L64.2749 234.864L58.9051 226.587L64.2749 219.296Z" fill="#F3F3F4"/>
<path d="M72.4302 203.729L77.8 211.019L72.4302 219.297L67.0604 211.019L72.4302 203.729Z" fill="#F3F3F4"/>
<path d="M80.2134 188.161L85.5832 195.451L80.2134 203.729L74.8436 195.451L80.2134 188.161Z" fill="#F3F3F4"/>
<path opacity="0.5" d="M87.6274 203.729L92.9973 211.019L87.6274 219.297L82.2576 211.019L87.6274 203.729Z" fill="#F3F3F4"/>
<path d="M72.4302 234.864L77.8 242.155L72.4302 250.432L67.0604 242.155L72.4302 234.864Z" fill="#F3F3F4"/>
<path d="M80.2134 219.296L85.5832 226.587L80.2134 234.864L74.8436 226.587L80.2134 219.296Z" fill="#F3F3F4"/>
<path d="M80.9556 250.432L86.3254 257.722L80.9556 266L75.5858 257.722L80.9556 250.432Z" fill="#F3F3F4"/>
<path d="M34.2515 188.161L39.6213 195.451L34.2515 203.729L28.8817 195.451L34.2515 188.161Z" fill="#F3F3F4"/>
<path opacity="0.5" d="M34.2515 157.025L39.6213 164.315L34.2515 172.593L28.8817 164.315L34.2515 157.025Z" fill="#F3F3F4"/>
<path d="M42.4067 171.11L47.7766 178.401L42.4067 186.678L37.0369 178.401L42.4067 171.11Z" fill="#F3F3F4"/>
<path d="M49.8198 155.542L55.1896 162.833L49.8198 171.11L44.45 162.833L49.8198 155.542Z" fill="#F3F3F4"/>
<path d="M57.603 139.975L62.9728 147.265L57.603 155.543L52.2332 147.265L57.603 139.975Z" fill="#F3F3F4"/>
<path d="M65.0171 155.542L70.3869 162.833L65.0171 171.11L59.6473 162.833L65.0171 155.542Z" fill="#F3F3F4"/>
<path d="M11.271 219.296L16.6408 226.587L11.271 234.864L5.90118 226.587L11.271 219.296Z" fill="#F3F3F4"/>
<path opacity="0.5" d="M42.4067 205.211L47.7766 212.502L42.4067 220.779L37.0369 212.502L42.4067 205.211Z" fill="#F3F3F4"/>
<path opacity="0.5" d="M25.356 203.729L30.7258 211.019L25.356 219.297L19.9861 211.019L25.356 203.729Z" fill="#F3F3F4"/>
<path d="M3.11572 124.407L8.48553 131.697L3.11572 139.975L-2.25409 131.697L3.11572 124.407Z" fill="#F3F3F4"/>
<path opacity="0.5" d="M10.8999 108.839L16.2697 116.129L10.8999 124.407L5.53009 116.129L10.8999 108.839Z" fill="#F3F3F4"/>
<path d="M18.313 124.407L23.6828 131.697L18.313 139.975L12.9432 131.697L18.313 124.407Z" fill="#F3F3F4"/>
<path d="M26.4683 108.839L31.8381 116.129L26.4683 124.407L21.0984 116.129L26.4683 108.839Z" fill="#F3F3F4"/>
<path d="M34.2515 93.2712L39.6213 100.562L34.2515 108.839L28.8817 100.562L34.2515 93.2712Z" fill="#F3F3F4"/>
<path d="M41.6646 108.839L47.0344 116.129L41.6646 124.407L36.2947 116.129L41.6646 108.839Z" fill="#F3F3F4"/>
<path d="M26.4683 139.975L31.8381 147.265L26.4683 155.543L21.0984 147.265L26.4683 139.975Z" fill="#F3F3F4"/>
<path d="M34.2515 124.407L39.6213 131.697L34.2515 139.975L28.8817 131.697L34.2515 124.407Z" fill="#F3F3F4"/>
<path opacity="0.5" d="M41.6646 139.975L47.0344 147.265L41.6646 155.543L36.2947 147.265L41.6646 139.975Z" fill="#F3F3F4"/>
<path d="M3.85693 62.1356L9.22675 69.4259L3.85693 77.7034L-1.51288 69.4259L3.85693 62.1356Z" fill="#F3F3F4"/>
<path d="M11.6411 46.5679L17.0109 53.8582L11.6411 62.1357L6.2713 53.8582L11.6411 46.5679Z" fill="#F3F3F4"/>
<path opacity="0.5" d="M19.0542 62.1356L24.424 69.4259L19.0542 77.7034L13.6844 69.4259L19.0542 62.1356Z" fill="#F3F3F4"/>
<path opacity="0.5" d="M27.2095 46.5679L32.5793 53.8582L27.2095 62.1357L21.8397 53.8582L27.2095 46.5679Z" fill="#F3F3F4"/>
<path opacity="0.5" d="M34.9927 31L40.3625 38.2903L34.9927 46.5678L29.6229 38.2903L34.9927 31Z" fill="#F3F3F4"/>
<path d="M42.4067 46.5679L47.7766 53.8582L42.4067 62.1357L37.0369 53.8582L42.4067 46.5679Z" fill="#F3F3F4"/>
<path d="M27.2095 77.7036L32.5793 84.9939L27.2095 93.2714L21.8397 84.9939L27.2095 77.7036Z" fill="#F3F3F4"/>
<path d="M34.9927 62.1356L40.3625 69.4259L34.9927 77.7034L29.6229 69.4259L34.9927 62.1356Z" fill="#F3F3F4"/>
<path d="M42.4067 77.7036L47.7766 84.9939L42.4067 93.2714L37.0369 84.9939L42.4067 77.7036Z" fill="#F3F3F4"/>
<path opacity="0.5" d="M49.0786 124.407L54.4484 131.697L49.0786 139.975L43.7088 131.697L49.0786 124.407Z" fill="#F3F3F4"/>
<path d="M56.8618 108.839L62.2316 116.129L56.8618 124.407L51.492 116.129L56.8618 108.839Z" fill="#F3F3F4"/>
<path d="M64.2749 124.407L69.6447 131.697L64.2749 139.975L58.9051 131.697L64.2749 124.407Z" fill="#F3F3F4"/>
<path opacity="0.5" d="M72.4302 108.839L77.8 116.129L72.4302 124.407L67.0604 116.129L72.4302 108.839Z" fill="#F3F3F4"/>
<path d="M80.2134 93.2712L85.5832 100.562L80.2134 108.839L74.8436 100.562L80.2134 93.2712Z" fill="#F3F3F4"/>
<path opacity="0.5" d="M87.6274 108.839L92.9973 116.129L87.6274 124.407L82.2576 116.129L87.6274 108.839Z" fill="#F3F3F4"/>
<path opacity="0.5" d="M72.4302 139.975L77.8 147.265L72.4302 155.543L67.0604 147.265L72.4302 139.975Z" fill="#F3F3F4"/>
<path opacity="0.5" d="M80.2134 124.407L85.5832 131.697L80.2134 139.975L74.8436 131.697L80.2134 124.407Z" fill="#F3F3F4"/>
<path opacity="0.5" d="M87.6274 139.975L92.9973 147.265L87.6274 155.543L82.2576 147.265L87.6274 139.975Z" fill="#F3F3F4"/>
<path d="M-5.40967 172.593L-0.039856 179.883L-5.40967 188.161L-10.7795 179.883L-5.40967 172.593Z" fill="#F3F3F4"/>
<path opacity="0.5" d="M2.74561 157.025L8.11542 164.315L2.74561 172.593L-2.62421 164.315L2.74561 157.025Z" fill="#F3F3F4"/>
<path opacity="0.5" d="M10.5288 141.458L15.8986 148.748L10.5288 157.025L5.159 148.748L10.5288 141.458Z" fill="#F3F3F4"/>
<path d="M17.9429 157.025L23.3127 164.315L17.9429 172.593L12.5731 164.315L17.9429 157.025Z" fill="#F3F3F4"/>
<path d="M2.74561 188.161L8.11542 195.451L2.74561 203.729L-2.62421 195.451L2.74561 188.161Z" fill="#F3F3F4"/>
<path opacity="0.5" d="M10.5288 172.593L15.8986 179.883L10.5288 188.161L5.159 179.883L10.5288 172.593Z" fill="#F3F3F4"/>
<path d="M17.9429 188.161L23.3127 195.451L17.9429 203.729L12.5731 195.451L17.9429 188.161Z" fill="#F3F3F4"/>
<path d="M72.8003 171.11L78.1701 178.401L72.8003 186.678L67.4305 178.401L72.8003 171.11Z" fill="#F3F3F4"/>
<path d="M80.5845 155.542L85.9543 162.833L80.5845 171.11L75.2147 162.833L80.5845 155.542Z" fill="#F3F3F4"/>
<path opacity="0.5" d="M87.9976 171.11L93.3674 178.401L87.9976 186.678L82.6277 178.401L87.9976 171.11Z" fill="#F3F3F4"/>
<path d="M96.1519 155.542L101.522 162.833L96.1519 171.11L90.782 162.833L96.1519 155.542Z" fill="#F3F3F4"/>
<path d="M103.936 139.975L109.306 147.265L103.936 155.543L98.5662 147.265L103.936 139.975Z" fill="#F3F3F4"/>
<path opacity="0.5" d="M111.349 155.542L116.719 162.833L111.349 171.11L105.979 162.833L111.349 155.542Z" fill="#F3F3F4"/>
<path d="M96.1519 186.678L101.522 193.969L96.1519 202.246L90.782 193.969L96.1519 186.678Z" fill="#F3F3F4"/>
<path d="M103.936 171.11L109.306 178.401L103.936 186.678L98.5662 178.401L103.936 171.11Z" fill="#F3F3F4"/>
<path d="M111.349 186.678L116.719 193.969L111.349 202.246L105.979 193.969L111.349 186.678Z" fill="#F3F3F4"/>
<path d="M97.7837 93.407L103.154 100.697L97.7837 108.975L92.4139 100.697L97.7837 93.407Z" fill="#F3F3F4"/>
<path opacity="0.5" d="M105.567 77.8391L110.937 85.1294L105.567 93.4069L100.197 85.1294L105.567 77.8391Z" fill="#F3F3F4"/>
<path d="M112.98 93.407L118.35 100.697L112.98 108.975L107.61 100.697L112.98 93.407Z" fill="#F3F3F4"/>
<path d="M121.135 77.8391L126.505 85.1294L121.135 93.4069L115.765 85.1294L121.135 77.8391Z" fill="#F3F3F4"/>
<path d="M128.918 62.2712L134.288 69.5615L128.918 77.8391L123.549 69.5615L128.918 62.2712Z" fill="#F3F3F4"/>
<path d="M136.333 77.8391L141.702 85.1294L136.333 93.4069L130.963 85.1294L136.333 77.8391Z" fill="#F3F3F4"/>
<path d="M121.135 108.975L126.505 116.265L121.135 124.543L115.765 116.265L121.135 108.975Z" fill="#F3F3F4"/>
<path d="M128.918 93.407L134.288 100.697L128.918 108.975L123.549 100.697L128.918 93.407Z" fill="#F3F3F4"/>
<path d="M136.333 108.975L141.702 116.265L136.333 124.543L130.963 116.265L136.333 108.975Z" fill="#F3F3F4"/>
<path d="M190.079 188.296L195.448 195.587L190.079 203.864L184.709 195.587L190.079 188.296Z" fill="#F3F3F4"/>
<path opacity="0.5" d="M197.862 172.729L203.232 180.019L197.862 188.297L192.492 180.019L197.862 172.729Z" fill="#F3F3F4"/>
<path d="M205.275 188.296L210.645 195.587L205.275 203.864L199.905 195.587L205.275 188.296Z" fill="#F3F3F4"/>
<path d="M213.43 172.729L218.8 180.019L213.43 188.297L208.06 180.019L213.43 172.729Z" fill="#F3F3F4"/>
<path d="M221.213 157.161L226.583 164.451L221.213 172.729L215.844 164.451L221.213 157.161Z" fill="#F3F3F4"/>
<path d="M228.627 172.729L233.997 180.019L228.627 188.297L223.258 180.019L228.627 172.729Z" fill="#F3F3F4"/>
<path opacity="0.5" d="M213.43 203.864L218.8 211.155L213.43 219.432L208.06 211.155L213.43 203.864Z" fill="#F3F3F4"/>
<path d="M221.213 188.296L226.583 195.587L221.213 203.864L215.844 195.587L221.213 188.296Z" fill="#F3F3F4"/>
<path d="M221.956 219.432L227.325 226.722L221.956 235L216.586 226.722L221.956 219.432Z" fill="#F3F3F4"/>
<path d="M175.251 157.161L180.621 164.451L175.251 172.729L169.882 164.451L175.251 157.161Z" fill="#F3F3F4"/>
<path d="M175.251 126.025L180.621 133.315L175.251 141.593L169.882 133.315L175.251 126.025Z" fill="#F3F3F4"/>
<path d="M183.407 140.11L188.777 147.401L183.407 155.678L178.037 147.401L183.407 140.11Z" fill="#F3F3F4"/>
<path d="M190.82 124.542L196.19 131.833L190.82 140.11L185.45 131.833L190.82 124.542Z" fill="#F3F3F4"/>
<path d="M198.603 108.975L203.973 116.265L198.603 124.543L193.233 116.265L198.603 108.975Z" fill="#F3F3F4"/>
<path opacity="0.5" d="M206.017 124.542L211.387 131.833L206.017 140.11L200.647 131.833L206.017 124.542Z" fill="#F3F3F4"/>
<path d="M152.271 188.296L157.641 195.587L152.271 203.864L146.901 195.587L152.271 188.296Z" fill="#F3F3F4"/>
<path opacity="0.5" d="M183.407 174.211L188.777 181.502L183.407 189.779L178.037 181.502L183.407 174.211Z" fill="#F3F3F4"/>
<path d="M166.356 172.729L171.726 180.019L166.356 188.297L160.986 180.019L166.356 172.729Z" fill="#F3F3F4"/>
<path opacity="0.5" d="M144.116 93.407L149.486 100.697L144.116 108.975L138.746 100.697L144.116 93.407Z" fill="#F3F3F4"/>
<path opacity="0.5" d="M151.9 77.8391L157.27 85.1294L151.9 93.4069L146.53 85.1294L151.9 77.8391Z" fill="#F3F3F4"/>
<path d="M159.313 93.407L164.683 100.697L159.313 108.975L153.943 100.697L159.313 93.407Z" fill="#F3F3F4"/>
<path d="M167.468 77.8391L172.838 85.1294L167.468 93.4069L162.098 85.1294L167.468 77.8391Z" fill="#F3F3F4"/>
<path d="M175.251 62.2712L180.621 69.5615L175.251 77.8391L169.882 69.5615L175.251 62.2712Z" fill="#F3F3F4"/>
<path d="M182.665 77.8391L188.034 85.1294L182.665 93.4069L177.295 85.1294L182.665 77.8391Z" fill="#F3F3F4"/>
<path d="M167.468 108.975L172.838 116.265L167.468 124.543L162.098 116.265L167.468 108.975Z" fill="#F3F3F4"/>
<path d="M175.251 93.407L180.621 100.697L175.251 108.975L169.882 100.697L175.251 93.407Z" fill="#F3F3F4"/>
<path opacity="0.5" d="M182.665 108.975L188.034 116.265L182.665 124.543L177.295 116.265L182.665 108.975Z" fill="#F3F3F4"/>
<path d="M144.857 31.1356L150.227 38.4259L144.857 46.7034L139.487 38.4259L144.857 31.1356Z" fill="#F3F3F4"/>
<path opacity="0.5" d="M152.641 15.5679L158.011 22.8582L152.641 31.1357L147.271 22.8582L152.641 15.5679Z" fill="#F3F3F4"/>
<path opacity="0.5" d="M160.054 31.1356L165.424 38.4259L160.054 46.7034L154.684 38.4259L160.054 31.1356Z" fill="#F3F3F4"/>
<path opacity="0.5" d="M168.209 15.5679L173.579 22.8582L168.209 31.1357L162.84 22.8582L168.209 15.5679Z" fill="#F3F3F4"/>
<path d="M175.993 0L181.362 7.2903L175.993 15.5678L170.623 7.2903L175.993 0Z" fill="#F3F3F4"/>
<path d="M183.407 15.5679L188.777 22.8582L183.407 31.1357L178.037 22.8582L183.407 15.5679Z" fill="#F3F3F4"/>
<path opacity="0.5" d="M168.209 46.7035L173.579 53.9938L168.209 62.2713L162.84 53.9938L168.209 46.7035Z" fill="#F3F3F4"/>
<path d="M175.993 31.1356L181.362 38.4259L175.993 46.7034L170.623 38.4259L175.993 31.1356Z" fill="#F3F3F4"/>
<path d="M183.407 46.7035L188.777 53.9938L183.407 62.2713L178.037 53.9938L183.407 46.7035Z" fill="#F3F3F4"/>
<path d="M190.079 93.407L195.448 100.697L190.079 108.975L184.709 100.697L190.079 93.407Z" fill="#F3F3F4"/>
<path d="M197.862 77.8391L203.232 85.1294L197.862 93.4069L192.492 85.1294L197.862 77.8391Z" fill="#F3F3F4"/>
<path d="M205.275 93.407L210.645 100.697L205.275 108.975L199.905 100.697L205.275 93.407Z" fill="#F3F3F4"/>
<path d="M213.43 77.8391L218.8 85.1294L213.43 93.4069L208.06 85.1294L213.43 77.8391Z" fill="#F3F3F4"/>
<path d="M221.213 62.2712L226.583 69.5615L221.213 77.8391L215.844 69.5615L221.213 62.2712Z" fill="#F3F3F4"/>
<path d="M228.627 77.8391L233.997 85.1294L228.627 93.4069L223.258 85.1294L228.627 77.8391Z" fill="#F3F3F4"/>
<path d="M213.43 108.975L218.8 116.265L213.43 124.543L208.06 116.265L213.43 108.975Z" fill="#F3F3F4"/>
<path opacity="0.5" d="M221.213 93.407L226.583 100.697L221.213 108.975L215.844 100.697L221.213 93.407Z" fill="#F3F3F4"/>
<path d="M228.627 108.975L233.997 116.265L228.627 124.543L223.258 116.265L228.627 108.975Z" fill="#F3F3F4"/>
<path d="M120.394 141.593L125.764 148.883L120.394 157.161L115.024 148.883L120.394 141.593Z" fill="#F3F3F4"/>
<path d="M128.177 126.025L133.547 133.315L128.177 141.593L122.807 133.315L128.177 126.025Z" fill="#F3F3F4"/>
<path opacity="0.5" d="M135.59 141.593L140.96 148.883L135.59 157.161L130.221 148.883L135.59 141.593Z" fill="#F3F3F4"/>
<path d="M143.746 126.025L149.115 133.315L143.746 141.593L138.376 133.315L143.746 126.025Z" fill="#F3F3F4"/>
<path opacity="0.5" d="M151.529 110.458L156.899 117.748L151.529 126.025L146.159 117.748L151.529 110.458Z" fill="#F3F3F4"/>
<path d="M158.943 126.025L164.313 133.315L158.943 141.593L153.573 133.315L158.943 126.025Z" fill="#F3F3F4"/>
<path d="M143.746 157.161L149.115 164.451L143.746 172.729L138.376 164.451L143.746 157.161Z" fill="#F3F3F4"/>
<path d="M151.529 141.593L156.899 148.883L151.529 157.161L146.159 148.883L151.529 141.593Z" fill="#F3F3F4"/>
<path opacity="0.5" d="M158.943 157.161L164.313 164.451L158.943 172.729L153.573 164.451L158.943 157.161Z" fill="#F3F3F4"/>
<path d="M213.8 140.11L219.17 147.401L213.8 155.678L208.43 147.401L213.8 140.11Z" fill="#F3F3F4"/>
<path d="M221.584 124.542L226.954 131.833L221.584 140.11L216.215 131.833L221.584 124.542Z" fill="#F3F3F4"/>
<path d="M228.998 140.11L234.367 147.401L228.998 155.678L223.628 147.401L228.998 140.11Z" fill="#F3F3F4"/>
<path d="M237.152 124.542L242.522 131.833L237.152 140.11L231.782 131.833L237.152 124.542Z" fill="#F3F3F4"/>
<path d="M244.936 108.975L250.306 116.265L244.936 124.543L239.566 116.265L244.936 108.975Z" fill="#F3F3F4"/>
<path d="M252.349 124.542L257.719 131.833L252.349 140.11L246.979 131.833L252.349 124.542Z" fill="#F3F3F4"/>
<path d="M237.152 155.678L242.522 162.969L237.152 171.246L231.782 162.969L237.152 155.678Z" fill="#F3F3F4"/>
<path d="M244.936 140.11L250.306 147.401L244.936 155.678L239.566 147.401L244.936 140.11Z" fill="#F3F3F4"/>
<path d="M252.349 155.678L257.719 162.969L252.349 171.246L246.979 162.969L252.349 155.678Z" fill="#F3F3F4"/>
<path d="M42.7837 298.407L48.1535 305.697L42.7837 313.975L37.4139 305.697L42.7837 298.407Z" fill="#F3F3F4"/>
<path d="M50.5669 282.839L55.9367 290.129L50.5669 298.407L45.1971 290.129L50.5669 282.839Z" fill="#F3F3F4"/>
<path d="M57.98 298.407L63.3498 305.697L57.98 313.975L52.6102 305.697L57.98 298.407Z" fill="#F3F3F4"/>
<path d="M66.1353 282.839L71.5051 290.129L66.1353 298.407L60.7654 290.129L66.1353 282.839Z" fill="#F3F3F4"/>
<path d="M73.9185 267.271L79.2883 274.562L73.9185 282.839L68.5486 274.562L73.9185 267.271Z" fill="#F3F3F4"/>
<path d="M81.3325 282.839L86.7023 290.129L81.3325 298.407L75.9627 290.129L81.3325 282.839Z" fill="#F3F3F4"/>
<path d="M66.1353 313.975L71.5051 321.265L66.1353 329.543L60.7654 321.265L66.1353 313.975Z" fill="#F3F3F4"/>
<path d="M73.9185 298.407L79.2883 305.697L73.9185 313.975L68.5486 305.697L73.9185 298.407Z" fill="#F3F3F4"/>
<path d="M81.3325 313.975L86.7023 321.265L81.3325 329.543L75.9627 321.265L81.3325 313.975Z" fill="#F3F3F4"/>
<path d="M135.079 393.296L140.448 400.587L135.079 408.864L129.709 400.587L135.079 393.296Z" fill="#F3F3F4"/>
<path d="M142.862 377.729L148.232 385.019L142.862 393.297L137.492 385.019L142.862 377.729Z" fill="#F3F3F4"/>
<path d="M150.275 393.296L155.645 400.587L150.275 408.864L144.905 400.587L150.275 393.296Z" fill="#F3F3F4"/>
<path opacity="0.5" d="M158.43 377.729L163.8 385.019L158.43 393.297L153.06 385.019L158.43 377.729Z" fill="#F3F3F4"/>
<path d="M166.213 362.161L171.583 369.451L166.213 377.729L160.844 369.451L166.213 362.161Z" fill="#F3F3F4"/>
<path d="M173.627 377.729L178.997 385.019L173.627 393.297L168.258 385.019L173.627 377.729Z" fill="#F3F3F4"/>
<path d="M158.43 408.864L163.8 416.155L158.43 424.432L153.06 416.155L158.43 408.864Z" fill="#F3F3F4"/>
<path opacity="0.5" d="M166.213 393.296L171.583 400.587L166.213 408.864L160.844 400.587L166.213 393.296Z" fill="#F3F3F4"/>
<path opacity="0.5" d="M166.956 424.432L172.325 431.722L166.956 440L161.586 431.722L166.956 424.432Z" fill="#F3F3F4"/>
<path opacity="0.5" d="M120.251 362.161L125.621 369.451L120.251 377.729L114.882 369.451L120.251 362.161Z" fill="#F3F3F4"/>
<path d="M120.251 331.025L125.621 338.315L120.251 346.593L114.882 338.315L120.251 331.025Z" fill="#F3F3F4"/>
<path d="M128.407 345.11L133.777 352.401L128.407 360.678L123.037 352.401L128.407 345.11Z" fill="#F3F3F4"/>
<path opacity="0.5" d="M135.82 329.542L141.19 336.833L135.82 345.11L130.45 336.833L135.82 329.542Z" fill="#F3F3F4"/>
<path d="M143.603 313.975L148.973 321.265L143.603 329.543L138.233 321.265L143.603 313.975Z" fill="#F3F3F4"/>
<path d="M151.017 329.542L156.387 336.833L151.017 345.11L145.647 336.833L151.017 329.542Z" fill="#F3F3F4"/>
<path d="M97.271 393.296L102.641 400.587L97.271 408.864L91.9012 400.587L97.271 393.296Z" fill="#F3F3F4"/>
<path d="M128.407 379.211L133.777 386.502L128.407 394.779L123.037 386.502L128.407 379.211Z" fill="#F3F3F4"/>
<path d="M111.356 377.729L116.726 385.019L111.356 393.297L105.986 385.019L111.356 377.729Z" fill="#F3F3F4"/>
<path d="M89.1157 298.407L94.4855 305.697L89.1157 313.975L83.7459 305.697L89.1157 298.407Z" fill="#F3F3F4"/>
<path d="M96.8999 282.839L102.27 290.129L96.8999 298.407L91.5301 290.129L96.8999 282.839Z" fill="#F3F3F4"/>
<path d="M104.313 298.407L109.683 305.697L104.313 313.975L98.9432 305.697L104.313 298.407Z" fill="#F3F3F4"/>
<path d="M112.468 282.839L117.838 290.129L112.468 298.407L107.098 290.129L112.468 282.839Z" fill="#F3F3F4"/>
<path d="M120.251 267.271L125.621 274.562L120.251 282.839L114.882 274.562L120.251 267.271Z" fill="#F3F3F4"/>
<path d="M127.665 282.839L133.034 290.129L127.665 298.407L122.295 290.129L127.665 282.839Z" fill="#F3F3F4"/>
<path d="M112.468 313.975L117.838 321.265L112.468 329.543L107.098 321.265L112.468 313.975Z" fill="#F3F3F4"/>
<path d="M120.251 298.407L125.621 305.697L120.251 313.975L114.882 305.697L120.251 298.407Z" fill="#F3F3F4"/>
<path opacity="0.5" d="M127.665 313.975L133.034 321.265L127.665 329.543L122.295 321.265L127.665 313.975Z" fill="#F3F3F4"/>
<path d="M89.8569 236.136L95.2267 243.426L89.8569 251.704L84.4871 243.426L89.8569 236.136Z" fill="#F3F3F4"/>
<path d="M97.6411 220.568L103.011 227.858L97.6411 236.136L92.2713 227.858L97.6411 220.568Z" fill="#F3F3F4"/>
<path d="M105.054 236.136L110.424 243.426L105.054 251.704L99.6844 243.426L105.054 236.136Z" fill="#F3F3F4"/>
<path opacity="0.5" d="M113.209 220.568L118.579 227.858L113.209 236.136L107.84 227.858L113.209 220.568Z" fill="#F3F3F4"/>
<path d="M120.993 205L126.362 212.29L120.993 220.568L115.623 212.29L120.993 205Z" fill="#F3F3F4"/>
<path d="M128.407 220.568L133.777 227.858L128.407 236.136L123.037 227.858L128.407 220.568Z" fill="#F3F3F4"/>
<path d="M113.209 251.704L118.579 258.994L113.209 267.271L107.84 258.994L113.209 251.704Z" fill="#F3F3F4"/>
<path d="M120.993 236.136L126.362 243.426L120.993 251.704L115.623 243.426L120.993 236.136Z" fill="#F3F3F4"/>
<path d="M128.407 251.704L133.777 258.994L128.407 267.271L123.037 258.994L128.407 251.704Z" fill="#F3F3F4"/>
<path opacity="0.5" d="M135.079 298.407L140.448 305.697L135.079 313.975L129.709 305.697L135.079 298.407Z" fill="#F3F3F4"/>
<path opacity="0.5" d="M142.862 282.839L148.232 290.129L142.862 298.407L137.492 290.129L142.862 282.839Z" fill="#F3F3F4"/>
<path d="M150.275 298.407L155.645 305.697L150.275 313.975L144.905 305.697L150.275 298.407Z" fill="#F3F3F4"/>
<path d="M158.43 282.839L163.8 290.129L158.43 298.407L153.06 290.129L158.43 282.839Z" fill="#F3F3F4"/>
<path opacity="0.5" d="M166.213 267.271L171.583 274.562L166.213 282.839L160.844 274.562L166.213 267.271Z" fill="#F3F3F4"/>
<path opacity="0.5" d="M173.627 282.839L178.997 290.129L173.627 298.407L168.258 290.129L173.627 282.839Z" fill="#F3F3F4"/>
<path d="M158.43 313.975L163.8 321.265L158.43 329.543L153.06 321.265L158.43 313.975Z" fill="#F3F3F4"/>
<path opacity="0.5" d="M166.213 298.407L171.583 305.697L166.213 313.975L160.844 305.697L166.213 298.407Z" fill="#F3F3F4"/>
<path d="M173.627 313.975L178.997 321.265L173.627 329.543L168.258 321.265L173.627 313.975Z" fill="#F3F3F4"/>
<path d="M65.394 346.593L70.7639 353.883L65.394 362.161L60.0242 353.883L65.394 346.593Z" fill="#F3F3F4"/>
<path d="M73.1772 331.025L78.5471 338.315L73.1772 346.593L67.8074 338.315L73.1772 331.025Z" fill="#F3F3F4"/>
<path d="M80.5903 346.593L85.9601 353.883L80.5903 362.161L75.2205 353.883L80.5903 346.593Z" fill="#F3F3F4"/>
<path opacity="0.5" d="M88.7456 331.025L94.1154 338.315L88.7456 346.593L83.3758 338.315L88.7456 331.025Z" fill="#F3F3F4"/>
<path opacity="0.5" d="M96.5288 315.458L101.899 322.748L96.5288 331.025L91.159 322.748L96.5288 315.458Z" fill="#F3F3F4"/>
<path d="M103.943 331.025L109.313 338.315L103.943 346.593L98.5731 338.315L103.943 331.025Z" fill="#F3F3F4"/>
<path d="M88.7456 362.161L94.1154 369.451L88.7456 377.729L83.3758 369.451L88.7456 362.161Z" fill="#F3F3F4"/>
<path d="M96.5288 346.593L101.899 353.883L96.5288 362.161L91.159 353.883L96.5288 346.593Z" fill="#F3F3F4"/>
<path opacity="0.5" d="M103.943 362.161L109.313 369.451L103.943 377.729L98.5731 369.451L103.943 362.161Z" fill="#F3F3F4"/>
<path opacity="0.5" d="M158.8 345.11L164.17 352.401L158.8 360.678L153.43 352.401L158.8 345.11Z" fill="#F3F3F4"/>
<path opacity="0.5" d="M166.584 329.542L171.954 336.833L166.584 345.11L161.215 336.833L166.584 329.542Z" fill="#F3F3F4"/>
<path d="M173.998 345.11L179.367 352.401L173.998 360.678L168.628 352.401L173.998 345.11Z" fill="#F3F3F4"/>
<path d="M182.152 329.542L187.522 336.833L182.152 345.11L176.782 336.833L182.152 329.542Z" fill="#F3F3F4"/>
<path d="M189.936 313.975L195.306 321.265L189.936 329.543L184.566 321.265L189.936 313.975Z" fill="#F3F3F4"/>
<path d="M197.349 329.542L202.719 336.833L197.349 345.11L191.979 336.833L197.349 329.542Z" fill="#F3F3F4"/>
<path d="M182.152 360.678L187.522 367.969L182.152 376.246L176.782 367.969L182.152 360.678Z" fill="#F3F3F4"/>
<path opacity="0.5" d="M189.936 345.11L195.306 352.401L189.936 360.678L184.566 352.401L189.936 345.11Z" fill="#F3F3F4"/>
<path d="M197.349 360.678L202.719 367.969L197.349 376.246L191.979 367.969L197.349 360.678Z" fill="#F3F3F4"/>
</svg>
