<svg width="312" height="440" viewBox="0 0 312 440" fill="none" xmlns="http://www.w3.org/2000/svg">
<path opacity="0.5" d="M7.78369 124.407L13.1535 131.697L7.78369 139.975L2.41388 131.697L7.78369 124.407Z" fill="#F3F3F4"/>
<path opacity="0.5" d="M15.5669 108.839L20.9367 116.129L15.5669 124.407L10.1971 116.129L15.5669 108.839Z" fill="#F3F3F4"/>
<path d="M22.98 124.407L28.3498 131.697L22.98 139.975L17.6102 131.697L22.98 124.407Z" fill="#F3F3F4"/>
<path d="M31.1353 108.839L36.5051 116.129L31.1353 124.407L25.7654 116.129L31.1353 108.839Z" fill="#F3F3F4"/>
<path opacity="0.5" d="M38.9185 93.2712L44.2883 100.562L38.9185 108.839L33.5486 100.562L38.9185 93.2712Z" fill="#F3F3F4"/>
<path opacity="0.5" d="M46.3325 108.839L51.7023 116.129L46.3325 124.407L40.9627 116.129L46.3325 108.839Z" fill="#F3F3F4"/>
<path d="M31.1353 139.975L36.5051 147.265L31.1353 155.543L25.7654 147.265L31.1353 139.975Z" fill="#F3F3F4"/>
<path opacity="0.5" d="M38.9185 124.407L44.2883 131.697L38.9185 139.975L33.5486 131.697L38.9185 124.407Z" fill="#F3F3F4"/>
<path d="M46.3325 139.975L51.7023 147.265L46.3325 155.543L40.9627 147.265L46.3325 139.975Z" fill="#F3F3F4"/>
<path d="M100.079 219.296L105.448 226.587L100.079 234.864L94.7088 226.587L100.079 219.296Z" fill="#F3F3F4"/>
<path d="M107.862 203.729L113.232 211.019L107.862 219.297L102.492 211.019L107.862 203.729Z" fill="#F3F3F4"/>
<path opacity="0.5" d="M115.275 219.296L120.645 226.587L115.275 234.864L109.905 226.587L115.275 219.296Z" fill="#F3F3F4"/>
<path d="M123.43 203.729L128.8 211.019L123.43 219.297L118.06 211.019L123.43 203.729Z" fill="#F3F3F4"/>
<path d="M131.213 188.161L136.583 195.451L131.213 203.729L125.844 195.451L131.213 188.161Z" fill="#F3F3F4"/>
<path opacity="0.5" d="M138.627 203.729L143.997 211.019L138.627 219.297L133.258 211.019L138.627 203.729Z" fill="#F3F3F4"/>
<path d="M123.43 234.864L128.8 242.155L123.43 250.432L118.06 242.155L123.43 234.864Z" fill="#F3F3F4"/>
<path d="M131.213 219.296L136.583 226.587L131.213 234.864L125.844 226.587L131.213 219.296Z" fill="#F3F3F4"/>
<path d="M131.956 250.432L137.325 257.722L131.956 266L126.586 257.722L131.956 250.432Z" fill="#F3F3F4"/>
<path d="M85.2515 188.161L90.6213 195.451L85.2515 203.729L79.8817 195.451L85.2515 188.161Z" fill="#F3F3F4"/>
<path opacity="0.5" d="M85.2515 157.025L90.6213 164.315L85.2515 172.593L79.8817 164.315L85.2515 157.025Z" fill="#F3F3F4"/>
<path d="M93.4067 171.11L98.7766 178.401L93.4067 186.678L88.0369 178.401L93.4067 171.11Z" fill="#F3F3F4"/>
<path d="M100.82 155.542L106.19 162.833L100.82 171.11L95.45 162.833L100.82 155.542Z" fill="#F3F3F4"/>
<path d="M108.603 139.975L113.973 147.265L108.603 155.543L103.233 147.265L108.603 139.975Z" fill="#F3F3F4"/>
<path d="M116.017 155.542L121.387 162.833L116.017 171.11L110.647 162.833L116.017 155.542Z" fill="#F3F3F4"/>
<path d="M62.271 219.296L67.6408 226.587L62.271 234.864L56.9012 226.587L62.271 219.296Z" fill="#F3F3F4"/>
<path opacity="0.5" d="M93.4067 205.211L98.7766 212.502L93.4067 220.779L88.0369 212.502L93.4067 205.211Z" fill="#F3F3F4"/>
<path opacity="0.5" d="M76.356 203.729L81.7258 211.019L76.356 219.297L70.9861 211.019L76.356 203.729Z" fill="#F3F3F4"/>
<path d="M54.1157 124.407L59.4855 131.697L54.1157 139.975L48.7459 131.697L54.1157 124.407Z" fill="#F3F3F4"/>
<path opacity="0.5" d="M61.8999 108.839L67.2697 116.129L61.8999 124.407L56.5301 116.129L61.8999 108.839Z" fill="#F3F3F4"/>
<path d="M69.313 124.407L74.6828 131.697L69.313 139.975L63.9432 131.697L69.313 124.407Z" fill="#F3F3F4"/>
<path d="M77.4683 108.839L82.8381 116.129L77.4683 124.407L72.0984 116.129L77.4683 108.839Z" fill="#F3F3F4"/>
<path d="M85.2515 93.2712L90.6213 100.562L85.2515 108.839L79.8817 100.562L85.2515 93.2712Z" fill="#F3F3F4"/>
<path d="M92.6646 108.839L98.0344 116.129L92.6646 124.407L87.2947 116.129L92.6646 108.839Z" fill="#F3F3F4"/>
<path d="M77.4683 139.975L82.8381 147.265L77.4683 155.543L72.0984 147.265L77.4683 139.975Z" fill="#F3F3F4"/>
<path d="M85.2515 124.407L90.6213 131.697L85.2515 139.975L79.8817 131.697L85.2515 124.407Z" fill="#F3F3F4"/>
<path opacity="0.5" d="M92.6646 139.975L98.0344 147.265L92.6646 155.543L87.2947 147.265L92.6646 139.975Z" fill="#F3F3F4"/>
<path d="M54.8569 62.1357L60.2267 69.426L54.8569 77.7036L49.4871 69.426L54.8569 62.1357Z" fill="#F3F3F4"/>
<path d="M62.6411 46.5679L68.0109 53.8582L62.6411 62.1357L57.2713 53.8582L62.6411 46.5679Z" fill="#F3F3F4"/>
<path opacity="0.5" d="M70.0542 62.1357L75.424 69.426L70.0542 77.7036L64.6844 69.426L70.0542 62.1357Z" fill="#F3F3F4"/>
<path opacity="0.5" d="M78.2095 46.5679L83.5793 53.8582L78.2095 62.1357L72.8397 53.8582L78.2095 46.5679Z" fill="#F3F3F4"/>
<path opacity="0.5" d="M85.9927 31L91.3625 38.2903L85.9927 46.5678L80.6229 38.2903L85.9927 31Z" fill="#F3F3F4"/>
<path d="M93.4067 46.5679L98.7766 53.8582L93.4067 62.1357L88.0369 53.8582L93.4067 46.5679Z" fill="#F3F3F4"/>
<path d="M78.2095 77.7036L83.5793 84.9939L78.2095 93.2714L72.8397 84.9939L78.2095 77.7036Z" fill="#F3F3F4"/>
<path d="M85.9927 62.1357L91.3625 69.426L85.9927 77.7036L80.6229 69.426L85.9927 62.1357Z" fill="#F3F3F4"/>
<path d="M93.4067 77.7036L98.7766 84.9939L93.4067 93.2714L88.0369 84.9939L93.4067 77.7036Z" fill="#F3F3F4"/>
<path opacity="0.5" d="M100.079 124.407L105.448 131.697L100.079 139.975L94.7088 131.697L100.079 124.407Z" fill="#F3F3F4"/>
<path d="M107.862 108.839L113.232 116.129L107.862 124.407L102.492 116.129L107.862 108.839Z" fill="#F3F3F4"/>
<path d="M115.275 124.407L120.645 131.697L115.275 139.975L109.905 131.697L115.275 124.407Z" fill="#F3F3F4"/>
<path opacity="0.5" d="M123.43 108.839L128.8 116.129L123.43 124.407L118.06 116.129L123.43 108.839Z" fill="#F3F3F4"/>
<path d="M131.213 93.2712L136.583 100.562L131.213 108.839L125.844 100.562L131.213 93.2712Z" fill="#F3F3F4"/>
<path opacity="0.5" d="M138.627 108.839L143.997 116.129L138.627 124.407L133.258 116.129L138.627 108.839Z" fill="#F3F3F4"/>
<path opacity="0.5" d="M123.43 139.975L128.8 147.265L123.43 155.543L118.06 147.265L123.43 139.975Z" fill="#F3F3F4"/>
<path opacity="0.5" d="M131.213 124.407L136.583 131.697L131.213 139.975L125.844 131.697L131.213 124.407Z" fill="#F3F3F4"/>
<path opacity="0.5" d="M138.627 139.975L143.997 147.265L138.627 155.543L133.258 147.265L138.627 139.975Z" fill="#F3F3F4"/>
<path opacity="0.5" d="M30.394 172.593L35.7639 179.883L30.394 188.161L25.0242 179.883L30.394 172.593Z" fill="#F3F3F4"/>
<path d="M38.1772 157.025L43.5471 164.315L38.1772 172.593L32.8074 164.315L38.1772 157.025Z" fill="#F3F3F4"/>
<path d="M45.5903 172.593L50.9601 179.883L45.5903 188.161L40.2205 179.883L45.5903 172.593Z" fill="#F3F3F4"/>
<path opacity="0.5" d="M53.7456 157.025L59.1154 164.315L53.7456 172.593L48.3758 164.315L53.7456 157.025Z" fill="#F3F3F4"/>
<path opacity="0.5" d="M61.5288 141.458L66.8986 148.748L61.5288 157.025L56.159 148.748L61.5288 141.458Z" fill="#F3F3F4"/>
<path d="M68.9429 157.025L74.3127 164.315L68.9429 172.593L63.5731 164.315L68.9429 157.025Z" fill="#F3F3F4"/>
<path d="M53.7456 188.161L59.1154 195.451L53.7456 203.729L48.3758 195.451L53.7456 188.161Z" fill="#F3F3F4"/>
<path opacity="0.5" d="M61.5288 172.593L66.8986 179.883L61.5288 188.161L56.159 179.883L61.5288 172.593Z" fill="#F3F3F4"/>
<path d="M68.9429 188.161L74.3127 195.451L68.9429 203.729L63.5731 195.451L68.9429 188.161Z" fill="#F3F3F4"/>
<path d="M123.8 171.11L129.17 178.401L123.8 186.678L118.43 178.401L123.8 171.11Z" fill="#F3F3F4"/>
<path d="M131.584 155.542L136.954 162.833L131.584 171.11L126.215 162.833L131.584 155.542Z" fill="#F3F3F4"/>
<path opacity="0.5" d="M138.998 171.11L144.367 178.401L138.998 186.678L133.628 178.401L138.998 171.11Z" fill="#F3F3F4"/>
<path d="M147.152 155.542L152.522 162.833L147.152 171.11L141.782 162.833L147.152 155.542Z" fill="#F3F3F4"/>
<path d="M154.936 139.975L160.306 147.265L154.936 155.543L149.566 147.265L154.936 139.975Z" fill="#F3F3F4"/>
<path opacity="0.5" d="M162.349 155.542L167.719 162.833L162.349 171.11L156.979 162.833L162.349 155.542Z" fill="#F3F3F4"/>
<path d="M147.152 186.678L152.522 193.969L147.152 202.246L141.782 193.969L147.152 186.678Z" fill="#F3F3F4"/>
<path d="M154.936 171.11L160.306 178.401L154.936 186.678L149.566 178.401L154.936 171.11Z" fill="#F3F3F4"/>
<path d="M162.349 186.678L167.719 193.969L162.349 202.246L156.979 193.969L162.349 186.678Z" fill="#F3F3F4"/>
<path d="M148.784 93.407L154.154 100.697L148.784 108.975L143.414 100.697L148.784 93.407Z" fill="#F3F3F4"/>
<path opacity="0.5" d="M156.567 77.8391L161.937 85.1294L156.567 93.4069L151.197 85.1294L156.567 77.8391Z" fill="#F3F3F4"/>
<path d="M163.98 93.407L169.35 100.697L163.98 108.975L158.61 100.697L163.98 93.407Z" fill="#F3F3F4"/>
<path d="M172.135 77.8391L177.505 85.1294L172.135 93.4069L166.765 85.1294L172.135 77.8391Z" fill="#F3F3F4"/>
<path d="M179.918 62.2712L185.288 69.5615L179.918 77.8391L174.549 69.5615L179.918 62.2712Z" fill="#F3F3F4"/>
<path d="M187.333 77.8391L192.702 85.1294L187.333 93.4069L181.963 85.1294L187.333 77.8391Z" fill="#F3F3F4"/>
<path d="M172.135 108.975L177.505 116.265L172.135 124.543L166.765 116.265L172.135 108.975Z" fill="#F3F3F4"/>
<path d="M179.918 93.407L185.288 100.697L179.918 108.975L174.549 100.697L179.918 93.407Z" fill="#F3F3F4"/>
<path d="M187.333 108.975L192.702 116.265L187.333 124.543L181.963 116.265L187.333 108.975Z" fill="#F3F3F4"/>
<path d="M241.079 188.296L246.448 195.587L241.079 203.864L235.709 195.587L241.079 188.296Z" fill="#F3F3F4"/>
<path opacity="0.5" d="M248.862 172.729L254.232 180.019L248.862 188.297L243.492 180.019L248.862 172.729Z" fill="#F3F3F4"/>
<path d="M256.275 188.296L261.645 195.587L256.275 203.864L250.905 195.587L256.275 188.296Z" fill="#F3F3F4"/>
<path d="M264.43 172.729L269.8 180.019L264.43 188.297L259.06 180.019L264.43 172.729Z" fill="#F3F3F4"/>
<path d="M272.213 157.161L277.583 164.451L272.213 172.729L266.844 164.451L272.213 157.161Z" fill="#F3F3F4"/>
<path d="M279.627 172.729L284.997 180.019L279.627 188.297L274.258 180.019L279.627 172.729Z" fill="#F3F3F4"/>
<path opacity="0.5" d="M264.43 203.864L269.8 211.155L264.43 219.432L259.06 211.155L264.43 203.864Z" fill="#F3F3F4"/>
<path d="M272.213 188.296L277.583 195.587L272.213 203.864L266.844 195.587L272.213 188.296Z" fill="#F3F3F4"/>
<path d="M272.956 219.432L278.325 226.722L272.956 235L267.586 226.722L272.956 219.432Z" fill="#F3F3F4"/>
<path d="M226.251 157.161L231.621 164.451L226.251 172.729L220.882 164.451L226.251 157.161Z" fill="#F3F3F4"/>
<path d="M226.251 126.025L231.621 133.315L226.251 141.593L220.882 133.315L226.251 126.025Z" fill="#F3F3F4"/>
<path d="M234.407 140.11L239.777 147.401L234.407 155.678L229.037 147.401L234.407 140.11Z" fill="#F3F3F4"/>
<path d="M241.82 124.542L247.19 131.833L241.82 140.11L236.45 131.833L241.82 124.542Z" fill="#F3F3F4"/>
<path d="M249.603 108.975L254.973 116.265L249.603 124.543L244.233 116.265L249.603 108.975Z" fill="#F3F3F4"/>
<path opacity="0.5" d="M257.017 124.542L262.387 131.833L257.017 140.11L251.647 131.833L257.017 124.542Z" fill="#F3F3F4"/>
<path d="M203.271 188.296L208.641 195.587L203.271 203.864L197.901 195.587L203.271 188.296Z" fill="#F3F3F4"/>
<path opacity="0.5" d="M234.407 174.211L239.777 181.502L234.407 189.779L229.037 181.502L234.407 174.211Z" fill="#F3F3F4"/>
<path d="M217.356 172.729L222.726 180.019L217.356 188.297L211.986 180.019L217.356 172.729Z" fill="#F3F3F4"/>
<path opacity="0.5" d="M195.116 93.407L200.486 100.697L195.116 108.975L189.746 100.697L195.116 93.407Z" fill="#F3F3F4"/>
<path opacity="0.5" d="M202.9 77.8391L208.27 85.1294L202.9 93.4069L197.53 85.1294L202.9 77.8391Z" fill="#F3F3F4"/>
<path d="M210.313 93.407L215.683 100.697L210.313 108.975L204.943 100.697L210.313 93.407Z" fill="#F3F3F4"/>
<path d="M218.468 77.8391L223.838 85.1294L218.468 93.4069L213.098 85.1294L218.468 77.8391Z" fill="#F3F3F4"/>
<path d="M226.251 62.2712L231.621 69.5615L226.251 77.8391L220.882 69.5615L226.251 62.2712Z" fill="#F3F3F4"/>
<path d="M233.665 77.8391L239.034 85.1294L233.665 93.4069L228.295 85.1294L233.665 77.8391Z" fill="#F3F3F4"/>
<path d="M218.468 108.975L223.838 116.265L218.468 124.543L213.098 116.265L218.468 108.975Z" fill="#F3F3F4"/>
<path d="M226.251 93.407L231.621 100.697L226.251 108.975L220.882 100.697L226.251 93.407Z" fill="#F3F3F4"/>
<path opacity="0.5" d="M233.665 108.975L239.034 116.265L233.665 124.543L228.295 116.265L233.665 108.975Z" fill="#F3F3F4"/>
<path d="M195.857 31.1357L201.227 38.426L195.857 46.7036L190.487 38.426L195.857 31.1357Z" fill="#F3F3F4"/>
<path opacity="0.5" d="M203.641 15.5679L209.011 22.8582L203.641 31.1357L198.271 22.8582L203.641 15.5679Z" fill="#F3F3F4"/>
<path opacity="0.5" d="M211.054 31.1357L216.424 38.426L211.054 46.7036L205.684 38.426L211.054 31.1357Z" fill="#F3F3F4"/>
<path opacity="0.5" d="M219.209 15.5679L224.579 22.8582L219.209 31.1357L213.84 22.8582L219.209 15.5679Z" fill="#F3F3F4"/>
<path d="M226.993 0L232.362 7.2903L226.993 15.5678L221.623 7.2903L226.993 0Z" fill="#F3F3F4"/>
<path d="M234.407 15.5679L239.777 22.8582L234.407 31.1357L229.037 22.8582L234.407 15.5679Z" fill="#F3F3F4"/>
<path opacity="0.5" d="M219.209 46.7036L224.579 53.9939L219.209 62.2714L213.84 53.9939L219.209 46.7036Z" fill="#F3F3F4"/>
<path d="M226.993 31.1357L232.362 38.426L226.993 46.7036L221.623 38.426L226.993 31.1357Z" fill="#F3F3F4"/>
<path d="M234.407 46.7036L239.777 53.9939L234.407 62.2714L229.037 53.9939L234.407 46.7036Z" fill="#F3F3F4"/>
<path d="M241.079 93.407L246.448 100.697L241.079 108.975L235.709 100.697L241.079 93.407Z" fill="#F3F3F4"/>
<path d="M248.862 77.8391L254.232 85.1294L248.862 93.4069L243.492 85.1294L248.862 77.8391Z" fill="#F3F3F4"/>
<path d="M256.275 93.407L261.645 100.697L256.275 108.975L250.905 100.697L256.275 93.407Z" fill="#F3F3F4"/>
<path d="M264.43 77.8391L269.8 85.1294L264.43 93.4069L259.06 85.1294L264.43 77.8391Z" fill="#F3F3F4"/>
<path d="M272.213 62.2712L277.583 69.5615L272.213 77.8391L266.844 69.5615L272.213 62.2712Z" fill="#F3F3F4"/>
<path d="M279.627 77.8391L284.997 85.1294L279.627 93.4069L274.258 85.1294L279.627 77.8391Z" fill="#F3F3F4"/>
<path d="M264.43 108.975L269.8 116.265L264.43 124.543L259.06 116.265L264.43 108.975Z" fill="#F3F3F4"/>
<path opacity="0.5" d="M272.213 93.407L277.583 100.697L272.213 108.975L266.844 100.697L272.213 93.407Z" fill="#F3F3F4"/>
<path d="M279.627 108.975L284.997 116.265L279.627 124.543L274.258 116.265L279.627 108.975Z" fill="#F3F3F4"/>
<path d="M171.394 141.593L176.764 148.883L171.394 157.161L166.024 148.883L171.394 141.593Z" fill="#F3F3F4"/>
<path d="M179.177 126.025L184.547 133.315L179.177 141.593L173.807 133.315L179.177 126.025Z" fill="#F3F3F4"/>
<path opacity="0.5" d="M186.59 141.593L191.96 148.883L186.59 157.161L181.221 148.883L186.59 141.593Z" fill="#F3F3F4"/>
<path d="M194.746 126.025L200.115 133.315L194.746 141.593L189.376 133.315L194.746 126.025Z" fill="#F3F3F4"/>
<path opacity="0.5" d="M202.529 110.458L207.899 117.748L202.529 126.025L197.159 117.748L202.529 110.458Z" fill="#F3F3F4"/>
<path d="M209.943 126.025L215.313 133.315L209.943 141.593L204.573 133.315L209.943 126.025Z" fill="#F3F3F4"/>
<path d="M194.746 157.161L200.115 164.451L194.746 172.729L189.376 164.451L194.746 157.161Z" fill="#F3F3F4"/>
<path d="M202.529 141.593L207.899 148.883L202.529 157.161L197.159 148.883L202.529 141.593Z" fill="#F3F3F4"/>
<path opacity="0.5" d="M209.943 157.161L215.313 164.451L209.943 172.729L204.573 164.451L209.943 157.161Z" fill="#F3F3F4"/>
<path d="M264.8 140.11L270.17 147.401L264.8 155.678L259.43 147.401L264.8 140.11Z" fill="#F3F3F4"/>
<path d="M272.584 124.542L277.954 131.833L272.584 140.11L267.215 131.833L272.584 124.542Z" fill="#F3F3F4"/>
<path d="M279.998 140.11L285.367 147.401L279.998 155.678L274.628 147.401L279.998 140.11Z" fill="#F3F3F4"/>
<path d="M288.152 124.542L293.522 131.833L288.152 140.11L282.782 131.833L288.152 124.542Z" fill="#F3F3F4"/>
<path d="M295.936 108.975L301.306 116.265L295.936 124.543L290.566 116.265L295.936 108.975Z" fill="#F3F3F4"/>
<path d="M303.349 124.542L308.719 131.833L303.349 140.11L297.979 131.833L303.349 124.542Z" fill="#F3F3F4"/>
<path d="M288.152 155.678L293.522 162.969L288.152 171.246L282.782 162.969L288.152 155.678Z" fill="#F3F3F4"/>
<path d="M295.936 140.11L301.306 147.401L295.936 155.678L290.566 147.401L295.936 140.11Z" fill="#F3F3F4"/>
<path d="M303.349 155.678L308.719 162.969L303.349 171.246L297.979 162.969L303.349 155.678Z" fill="#F3F3F4"/>
<path d="M93.7837 298.407L99.1535 305.697L93.7837 313.975L88.4139 305.697L93.7837 298.407Z" fill="#F3F3F4"/>
<path d="M101.567 282.839L106.937 290.129L101.567 298.407L96.1971 290.129L101.567 282.839Z" fill="#F3F3F4"/>
<path d="M108.98 298.407L114.35 305.697L108.98 313.975L103.61 305.697L108.98 298.407Z" fill="#F3F3F4"/>
<path d="M117.135 282.839L122.505 290.129L117.135 298.407L111.765 290.129L117.135 282.839Z" fill="#F3F3F4"/>
<path d="M124.918 267.271L130.288 274.562L124.918 282.839L119.549 274.562L124.918 267.271Z" fill="#F3F3F4"/>
<path d="M132.333 282.839L137.702 290.129L132.333 298.407L126.963 290.129L132.333 282.839Z" fill="#F3F3F4"/>
<path d="M117.135 313.975L122.505 321.265L117.135 329.543L111.765 321.265L117.135 313.975Z" fill="#F3F3F4"/>
<path d="M124.918 298.407L130.288 305.697L124.918 313.975L119.549 305.697L124.918 298.407Z" fill="#F3F3F4"/>
<path d="M132.333 313.975L137.702 321.265L132.333 329.543L126.963 321.265L132.333 313.975Z" fill="#F3F3F4"/>
<path d="M186.079 393.296L191.448 400.587L186.079 408.864L180.709 400.587L186.079 393.296Z" fill="#F3F3F4"/>
<path d="M193.862 377.729L199.232 385.019L193.862 393.297L188.492 385.019L193.862 377.729Z" fill="#F3F3F4"/>
<path d="M201.275 393.296L206.645 400.587L201.275 408.864L195.905 400.587L201.275 393.296Z" fill="#F3F3F4"/>
<path opacity="0.5" d="M209.43 377.729L214.8 385.019L209.43 393.297L204.06 385.019L209.43 377.729Z" fill="#F3F3F4"/>
<path d="M217.213 362.161L222.583 369.451L217.213 377.729L211.844 369.451L217.213 362.161Z" fill="#F3F3F4"/>
<path d="M224.627 377.729L229.997 385.019L224.627 393.297L219.258 385.019L224.627 377.729Z" fill="#F3F3F4"/>
<path d="M209.43 408.864L214.8 416.155L209.43 424.432L204.06 416.155L209.43 408.864Z" fill="#F3F3F4"/>
<path opacity="0.5" d="M217.213 393.296L222.583 400.587L217.213 408.864L211.844 400.587L217.213 393.296Z" fill="#F3F3F4"/>
<path opacity="0.5" d="M217.956 424.432L223.325 431.722L217.956 440L212.586 431.722L217.956 424.432Z" fill="#F3F3F4"/>
<path opacity="0.5" d="M171.251 362.161L176.621 369.451L171.251 377.729L165.882 369.451L171.251 362.161Z" fill="#F3F3F4"/>
<path d="M171.251 331.025L176.621 338.315L171.251 346.593L165.882 338.315L171.251 331.025Z" fill="#F3F3F4"/>
<path d="M179.407 345.11L184.777 352.401L179.407 360.678L174.037 352.401L179.407 345.11Z" fill="#F3F3F4"/>
<path opacity="0.5" d="M186.82 329.542L192.19 336.833L186.82 345.11L181.45 336.833L186.82 329.542Z" fill="#F3F3F4"/>
<path d="M194.603 313.975L199.973 321.265L194.603 329.543L189.233 321.265L194.603 313.975Z" fill="#F3F3F4"/>
<path d="M202.017 329.542L207.387 336.833L202.017 345.11L196.647 336.833L202.017 329.542Z" fill="#F3F3F4"/>
<path d="M148.271 393.296L153.641 400.587L148.271 408.864L142.901 400.587L148.271 393.296Z" fill="#F3F3F4"/>
<path d="M179.407 379.211L184.777 386.502L179.407 394.779L174.037 386.502L179.407 379.211Z" fill="#F3F3F4"/>
<path d="M162.356 377.729L167.726 385.019L162.356 393.297L156.986 385.019L162.356 377.729Z" fill="#F3F3F4"/>
<path d="M140.116 298.407L145.486 305.697L140.116 313.975L134.746 305.697L140.116 298.407Z" fill="#F3F3F4"/>
<path d="M147.9 282.839L153.27 290.129L147.9 298.407L142.53 290.129L147.9 282.839Z" fill="#F3F3F4"/>
<path d="M155.313 298.407L160.683 305.697L155.313 313.975L149.943 305.697L155.313 298.407Z" fill="#F3F3F4"/>
<path d="M163.468 282.839L168.838 290.129L163.468 298.407L158.098 290.129L163.468 282.839Z" fill="#F3F3F4"/>
<path d="M171.251 267.271L176.621 274.562L171.251 282.839L165.882 274.562L171.251 267.271Z" fill="#F3F3F4"/>
<path d="M178.665 282.839L184.034 290.129L178.665 298.407L173.295 290.129L178.665 282.839Z" fill="#F3F3F4"/>
<path d="M163.468 313.975L168.838 321.265L163.468 329.543L158.098 321.265L163.468 313.975Z" fill="#F3F3F4"/>
<path d="M171.251 298.407L176.621 305.697L171.251 313.975L165.882 305.697L171.251 298.407Z" fill="#F3F3F4"/>
<path opacity="0.5" d="M178.665 313.975L184.034 321.265L178.665 329.543L173.295 321.265L178.665 313.975Z" fill="#F3F3F4"/>
<path d="M140.857 236.136L146.227 243.426L140.857 251.704L135.487 243.426L140.857 236.136Z" fill="#F3F3F4"/>
<path d="M148.641 220.568L154.011 227.858L148.641 236.136L143.271 227.858L148.641 220.568Z" fill="#F3F3F4"/>
<path d="M156.054 236.136L161.424 243.426L156.054 251.704L150.684 243.426L156.054 236.136Z" fill="#F3F3F4"/>
<path opacity="0.5" d="M164.209 220.568L169.579 227.858L164.209 236.136L158.84 227.858L164.209 220.568Z" fill="#F3F3F4"/>
<path d="M171.993 205L177.362 212.29L171.993 220.568L166.623 212.29L171.993 205Z" fill="#F3F3F4"/>
<path d="M179.407 220.568L184.777 227.858L179.407 236.136L174.037 227.858L179.407 220.568Z" fill="#F3F3F4"/>
<path d="M164.209 251.704L169.579 258.994L164.209 267.271L158.84 258.994L164.209 251.704Z" fill="#F3F3F4"/>
<path d="M171.993 236.136L177.362 243.426L171.993 251.704L166.623 243.426L171.993 236.136Z" fill="#F3F3F4"/>
<path d="M179.407 251.704L184.777 258.994L179.407 267.271L174.037 258.994L179.407 251.704Z" fill="#F3F3F4"/>
<path opacity="0.5" d="M186.079 298.407L191.448 305.697L186.079 313.975L180.709 305.697L186.079 298.407Z" fill="#F3F3F4"/>
<path opacity="0.5" d="M193.862 282.839L199.232 290.129L193.862 298.407L188.492 290.129L193.862 282.839Z" fill="#F3F3F4"/>
<path d="M201.275 298.407L206.645 305.697L201.275 313.975L195.905 305.697L201.275 298.407Z" fill="#F3F3F4"/>
<path d="M209.43 282.839L214.8 290.129L209.43 298.407L204.06 290.129L209.43 282.839Z" fill="#F3F3F4"/>
<path opacity="0.5" d="M217.213 267.271L222.583 274.562L217.213 282.839L211.844 274.562L217.213 267.271Z" fill="#F3F3F4"/>
<path opacity="0.5" d="M224.627 282.839L229.997 290.129L224.627 298.407L219.258 290.129L224.627 282.839Z" fill="#F3F3F4"/>
<path d="M209.43 313.975L214.8 321.265L209.43 329.543L204.06 321.265L209.43 313.975Z" fill="#F3F3F4"/>
<path opacity="0.5" d="M217.213 298.407L222.583 305.697L217.213 313.975L211.844 305.697L217.213 298.407Z" fill="#F3F3F4"/>
<path d="M224.627 313.975L229.997 321.265L224.627 329.543L219.258 321.265L224.627 313.975Z" fill="#F3F3F4"/>
<path d="M116.394 346.593L121.764 353.883L116.394 362.161L111.024 353.883L116.394 346.593Z" fill="#F3F3F4"/>
<path d="M124.177 331.025L129.547 338.315L124.177 346.593L118.807 338.315L124.177 331.025Z" fill="#F3F3F4"/>
<path d="M131.59 346.593L136.96 353.883L131.59 362.161L126.221 353.883L131.59 346.593Z" fill="#F3F3F4"/>
<path opacity="0.5" d="M139.746 331.025L145.115 338.315L139.746 346.593L134.376 338.315L139.746 331.025Z" fill="#F3F3F4"/>
<path opacity="0.5" d="M147.529 315.458L152.899 322.748L147.529 331.025L142.159 322.748L147.529 315.458Z" fill="#F3F3F4"/>
<path d="M154.943 331.025L160.313 338.315L154.943 346.593L149.573 338.315L154.943 331.025Z" fill="#F3F3F4"/>
<path d="M139.746 362.161L145.115 369.451L139.746 377.729L134.376 369.451L139.746 362.161Z" fill="#F3F3F4"/>
<path d="M147.529 346.593L152.899 353.883L147.529 362.161L142.159 353.883L147.529 346.593Z" fill="#F3F3F4"/>
<path opacity="0.5" d="M154.943 362.161L160.313 369.451L154.943 377.729L149.573 369.451L154.943 362.161Z" fill="#F3F3F4"/>
<path opacity="0.5" d="M209.8 345.11L215.17 352.401L209.8 360.678L204.43 352.401L209.8 345.11Z" fill="#F3F3F4"/>
<path opacity="0.5" d="M217.584 329.542L222.954 336.833L217.584 345.11L212.215 336.833L217.584 329.542Z" fill="#F3F3F4"/>
<path d="M224.998 345.11L230.367 352.401L224.998 360.678L219.628 352.401L224.998 345.11Z" fill="#F3F3F4"/>
<path d="M233.152 329.542L238.522 336.833L233.152 345.11L227.782 336.833L233.152 329.542Z" fill="#F3F3F4"/>
<path d="M240.936 313.975L246.306 321.265L240.936 329.543L235.566 321.265L240.936 313.975Z" fill="#F3F3F4"/>
<path d="M248.349 329.542L253.719 336.833L248.349 345.11L242.979 336.833L248.349 329.542Z" fill="#F3F3F4"/>
<path d="M233.152 360.678L238.522 367.969L233.152 376.246L227.782 367.969L233.152 360.678Z" fill="#F3F3F4"/>
<path opacity="0.5" d="M240.936 345.11L246.306 352.401L240.936 360.678L235.566 352.401L240.936 345.11Z" fill="#F3F3F4"/>
<path d="M248.349 360.678L253.719 367.969L248.349 376.246L242.979 367.969L248.349 360.678Z" fill="#F3F3F4"/>
</svg>
