<svg width="193" height="54" viewBox="0 0 193 54" fill="none" xmlns="http://www.w3.org/2000/svg">
<path d="M10.376 16.877H3.85449V12.7637H10.376C11.3838 12.7637 12.2041 12.5996 12.8369 12.2715C13.4697 11.9316 13.9326 11.4629 14.2256 10.8652C14.5186 10.2676 14.665 9.59375 14.665 8.84375C14.665 8.08203 14.5186 7.37305 14.2256 6.7168C13.9326 6.06055 13.4697 5.5332 12.8369 5.13477C12.2041 4.73633 11.3838 4.53711 10.376 4.53711H5.68262V26H0.40918V0.40625H10.376C12.3799 0.40625 14.0967 0.769531 15.5264 1.49609C16.9678 2.21094 18.0693 3.20117 18.8311 4.4668C19.5928 5.73242 19.9736 7.17969 19.9736 8.80859C19.9736 10.4609 19.5928 11.8906 18.8311 13.0977C18.0693 14.3047 16.9678 15.2363 15.5264 15.8926C14.0967 16.5488 12.3799 16.877 10.376 16.877ZM28.3584 11.1289V26H23.2959V6.98047H28.0596L28.3584 11.1289ZM34.0889 6.85742L34.001 11.5508C33.7549 11.5156 33.4561 11.4863 33.1045 11.4629C32.7646 11.4277 32.4541 11.4102 32.1729 11.4102C31.458 11.4102 30.8369 11.5039 30.3096 11.6914C29.7939 11.8672 29.3604 12.1309 29.0088 12.4824C28.6689 12.834 28.4111 13.2617 28.2354 13.7656C28.0713 14.2695 27.9775 14.8438 27.9541 15.4883L26.9346 15.1719C26.9346 13.9414 27.0576 12.8105 27.3037 11.7793C27.5498 10.7363 27.9072 9.82812 28.376 9.05469C28.8564 8.28125 29.4424 7.68359 30.1338 7.26172C30.8252 6.83984 31.6162 6.62891 32.5068 6.62891C32.7881 6.62891 33.0752 6.65234 33.3682 6.69922C33.6611 6.73438 33.9014 6.78711 34.0889 6.85742ZM35.1436 16.6836V16.3145C35.1436 14.9199 35.3428 13.6367 35.7412 12.4648C36.1396 11.2812 36.7197 10.2559 37.4814 9.38867C38.2432 8.52148 39.1807 7.84766 40.2939 7.36719C41.4072 6.875 42.6846 6.62891 44.126 6.62891C45.5674 6.62891 46.8506 6.875 47.9756 7.36719C49.1006 7.84766 50.0439 8.52148 50.8057 9.38867C51.5791 10.2559 52.165 11.2812 52.5635 12.4648C52.9619 13.6367 53.1611 14.9199 53.1611 16.3145V16.6836C53.1611 18.0664 52.9619 19.3496 52.5635 20.5332C52.165 21.7051 51.5791 22.7305 50.8057 23.6094C50.0439 24.4766 49.1064 25.1504 47.9932 25.6309C46.8799 26.1113 45.6025 26.3516 44.1611 26.3516C42.7197 26.3516 41.4365 26.1113 40.3115 25.6309C39.1982 25.1504 38.2549 24.4766 37.4814 23.6094C36.7197 22.7305 36.1396 21.7051 35.7412 20.5332C35.3428 19.3496 35.1436 18.0664 35.1436 16.6836ZM40.2061 16.3145V16.6836C40.2061 17.4805 40.2764 18.2246 40.417 18.916C40.5576 19.6074 40.7803 20.2168 41.085 20.7441C41.4014 21.2598 41.8115 21.6641 42.3154 21.957C42.8193 22.25 43.4346 22.3965 44.1611 22.3965C44.8643 22.3965 45.4678 22.25 45.9717 21.957C46.4756 21.6641 46.8799 21.2598 47.1846 20.7441C47.4893 20.2168 47.7119 19.6074 47.8525 18.916C48.0049 18.2246 48.0811 17.4805 48.0811 16.6836V16.3145C48.0811 15.541 48.0049 14.8145 47.8525 14.1348C47.7119 13.4434 47.4834 12.834 47.167 12.3066C46.8623 11.7676 46.458 11.3457 45.9541 11.041C45.4502 10.7363 44.8408 10.584 44.126 10.584C43.4111 10.584 42.8018 10.7363 42.2979 11.041C41.8057 11.3457 41.4014 11.7676 41.085 12.3066C40.7803 12.834 40.5576 13.4434 40.417 14.1348C40.2764 14.8145 40.2061 15.541 40.2061 16.3145ZM66.5557 20.7441C66.5557 20.3809 66.4502 20.0527 66.2393 19.7598C66.0283 19.4668 65.6357 19.1973 65.0615 18.9512C64.499 18.6934 63.6846 18.459 62.6182 18.248C61.6572 18.0371 60.7607 17.7734 59.9287 17.457C59.1084 17.1289 58.3936 16.7363 57.7842 16.2793C57.1865 15.8223 56.7178 15.2832 56.3779 14.6621C56.0381 14.0293 55.8682 13.3086 55.8682 12.5C55.8682 11.7031 56.0381 10.9531 56.3779 10.25C56.7295 9.54688 57.2275 8.92578 57.8721 8.38672C58.5283 7.83594 59.3252 7.4082 60.2627 7.10352C61.2119 6.78711 62.2783 6.62891 63.4619 6.62891C65.1143 6.62891 66.5322 6.89258 67.7158 7.41992C68.9111 7.94727 69.8252 8.67383 70.458 9.59961C71.1025 10.5137 71.4248 11.5566 71.4248 12.7285H66.3623C66.3623 12.2363 66.2568 11.7969 66.0459 11.4102C65.8467 11.0117 65.5303 10.7012 65.0967 10.4785C64.6748 10.2441 64.124 10.127 63.4443 10.127C62.8818 10.127 62.3955 10.2266 61.9854 10.4258C61.5752 10.6133 61.2588 10.8711 61.0361 11.1992C60.8252 11.5156 60.7197 11.8672 60.7197 12.2539C60.7197 12.5469 60.7783 12.8105 60.8955 13.0449C61.0244 13.2676 61.2295 13.4727 61.5107 13.6602C61.792 13.8477 62.1553 14.0234 62.6006 14.1875C63.0576 14.3398 63.6201 14.4805 64.2881 14.6094C65.6592 14.8906 66.8838 15.2598 67.9619 15.7168C69.04 16.1621 69.8955 16.7715 70.5283 17.5449C71.1611 18.3066 71.4775 19.3086 71.4775 20.5508C71.4775 21.3945 71.29 22.168 70.915 22.8711C70.54 23.5742 70.001 24.1895 69.2979 24.7168C68.5947 25.2324 67.751 25.6367 66.7666 25.9297C65.7939 26.2109 64.6982 26.3516 63.4795 26.3516C61.71 26.3516 60.21 26.0352 58.9795 25.4023C57.7607 24.7695 56.835 23.9668 56.2021 22.9941C55.5811 22.0098 55.2705 21.002 55.2705 19.9707H60.0693C60.0928 20.6621 60.2686 21.2188 60.5967 21.6406C60.9365 22.0625 61.3643 22.3672 61.8799 22.5547C62.4072 22.7422 62.9756 22.8359 63.585 22.8359C64.2412 22.8359 64.7861 22.748 65.2197 22.5723C65.6533 22.3848 65.9814 22.1387 66.2041 21.834C66.4385 21.5176 66.5557 21.1543 66.5557 20.7441ZM79.8271 10.6367V33.3125H74.7646V6.98047H79.458L79.8271 10.6367ZM91.8682 16.2793V16.6484C91.8682 18.0312 91.7041 19.3145 91.376 20.498C91.0596 21.6816 90.5908 22.7129 89.9697 23.5918C89.3486 24.459 88.5752 25.1387 87.6494 25.6309C86.7354 26.1113 85.6807 26.3516 84.4854 26.3516C83.3252 26.3516 82.3174 26.1172 81.4619 25.6484C80.6064 25.1797 79.8857 24.5234 79.2998 23.6797C78.7256 22.8242 78.2627 21.834 77.9111 20.709C77.5596 19.584 77.29 18.377 77.1025 17.0879V16.1211C77.29 14.7383 77.5596 13.4727 77.9111 12.3242C78.2627 11.1641 78.7256 10.1621 79.2998 9.31836C79.8857 8.46289 80.6006 7.80078 81.4443 7.33203C82.2998 6.86328 83.3018 6.62891 84.4502 6.62891C85.6572 6.62891 86.7178 6.85742 87.6318 7.31445C88.5576 7.77148 89.3311 8.42773 89.9521 9.2832C90.585 10.1387 91.0596 11.1582 91.376 12.3418C91.7041 13.5254 91.8682 14.8379 91.8682 16.2793ZM86.7881 16.6484V16.2793C86.7881 15.4707 86.7178 14.7266 86.5771 14.0469C86.4482 13.3555 86.2373 12.752 85.9443 12.2363C85.6631 11.7207 85.2881 11.3223 84.8193 11.041C84.3623 10.748 83.8057 10.6016 83.1494 10.6016C82.458 10.6016 81.8662 10.7129 81.374 10.9355C80.8936 11.1582 80.501 11.4805 80.1963 11.9023C79.8916 12.3242 79.6631 12.8281 79.5107 13.4141C79.3584 14 79.2646 14.6621 79.2295 15.4004V17.8438C79.2881 18.7109 79.4521 19.4902 79.7217 20.1816C79.9912 20.8613 80.4072 21.4004 80.9697 21.7988C81.5322 22.1973 82.2705 22.3965 83.1846 22.3965C83.8525 22.3965 84.415 22.25 84.8721 21.957C85.3291 21.6523 85.6982 21.2363 85.9795 20.709C86.2725 20.1816 86.4775 19.5723 86.5947 18.8809C86.7236 18.1895 86.7881 17.4453 86.7881 16.6484ZM103.769 26.3516C102.292 26.3516 100.968 26.1172 99.7959 25.6484C98.624 25.168 97.6279 24.5059 96.8076 23.6621C95.999 22.8184 95.3779 21.8398 94.9443 20.7266C94.5107 19.6016 94.2939 18.4062 94.2939 17.1406V16.4375C94.2939 14.9961 94.499 13.6777 94.9092 12.4824C95.3193 11.2871 95.9053 10.25 96.667 9.37109C97.4404 8.49219 98.3779 7.81836 99.4795 7.34961C100.581 6.86914 101.823 6.62891 103.206 6.62891C104.554 6.62891 105.749 6.85156 106.792 7.29688C107.835 7.74219 108.708 8.375 109.411 9.19531C110.126 10.0156 110.665 11 111.028 12.1484C111.392 13.2852 111.573 14.5508 111.573 15.9453V18.0547H96.4561V14.6797H106.599V14.293C106.599 13.5898 106.47 12.9629 106.212 12.4121C105.966 11.8496 105.591 11.4043 105.087 11.0762C104.583 10.748 103.938 10.584 103.153 10.584C102.485 10.584 101.911 10.7305 101.431 11.0234C100.95 11.3164 100.558 11.7266 100.253 12.2539C99.96 12.7812 99.7373 13.4023 99.585 14.1172C99.4443 14.8203 99.374 15.5938 99.374 16.4375V17.1406C99.374 17.9023 99.4795 18.6055 99.6904 19.25C99.9131 19.8945 100.224 20.4512 100.622 20.9199C101.032 21.3887 101.524 21.752 102.099 22.0098C102.685 22.2676 103.347 22.3965 104.085 22.3965C104.999 22.3965 105.849 22.2207 106.634 21.8691C107.431 21.5059 108.116 20.9609 108.69 20.2344L111.151 22.9062C110.753 23.4805 110.208 24.0312 109.517 24.5586C108.837 25.0859 108.017 25.5195 107.056 25.8594C106.095 26.1875 104.999 26.3516 103.769 26.3516ZM122.313 22.3965C122.935 22.3965 123.485 22.2793 123.966 22.0449C124.446 21.7988 124.821 21.459 125.091 21.0254C125.372 20.5801 125.519 20.0586 125.53 19.4609H130.294C130.282 20.7969 129.925 21.9863 129.222 23.0293C128.519 24.0605 127.575 24.875 126.392 25.4727C125.208 26.0586 123.884 26.3516 122.419 26.3516C120.942 26.3516 119.653 26.1055 118.552 25.6133C117.462 25.1211 116.554 24.4414 115.827 23.5742C115.101 22.6953 114.556 21.6758 114.192 20.5156C113.829 19.3438 113.647 18.0898 113.647 16.7539V16.2441C113.647 14.8965 113.829 13.6426 114.192 12.4824C114.556 11.3105 115.101 10.291 115.827 9.42383C116.554 8.54492 117.462 7.85938 118.552 7.36719C119.642 6.875 120.919 6.62891 122.384 6.62891C123.942 6.62891 125.308 6.92773 126.479 7.52539C127.663 8.12305 128.589 8.97852 129.257 10.0918C129.937 11.1934 130.282 12.5 130.294 14.0117H125.53C125.519 13.3789 125.384 12.8047 125.126 12.2891C124.88 11.7734 124.517 11.3633 124.036 11.0586C123.567 10.7422 122.987 10.584 122.296 10.584C121.558 10.584 120.954 10.7422 120.485 11.0586C120.017 11.3633 119.653 11.7852 119.396 12.3242C119.138 12.8516 118.956 13.4551 118.851 14.1348C118.757 14.8027 118.71 15.5059 118.71 16.2441V16.7539C118.71 17.4922 118.757 18.2012 118.851 18.8809C118.944 19.5605 119.12 20.1641 119.378 20.6914C119.647 21.2188 120.017 21.6348 120.485 21.9395C120.954 22.2441 121.563 22.3965 122.313 22.3965ZM142.546 6.98047V10.5664H131.472V6.98047H142.546ZM134.214 2.28711H139.276V20.2695C139.276 20.8203 139.347 21.2422 139.487 21.5352C139.64 21.8281 139.862 22.0332 140.155 22.1504C140.448 22.2559 140.817 22.3086 141.263 22.3086C141.579 22.3086 141.86 22.2969 142.106 22.2734C142.364 22.2383 142.581 22.2031 142.757 22.168L142.774 25.8945C142.341 26.0352 141.872 26.1465 141.368 26.2285C140.864 26.3105 140.308 26.3516 139.698 26.3516C138.585 26.3516 137.612 26.1699 136.78 25.8066C135.96 25.4316 135.327 24.834 134.882 24.0137C134.437 23.1934 134.214 22.1152 134.214 20.7793V2.28711ZM144.163 16.6836V16.3145C144.163 14.9199 144.362 13.6367 144.761 12.4648C145.159 11.2812 145.739 10.2559 146.501 9.38867C147.263 8.52148 148.2 7.84766 149.313 7.36719C150.427 6.875 151.704 6.62891 153.146 6.62891C154.587 6.62891 155.87 6.875 156.995 7.36719C158.12 7.84766 159.063 8.52148 159.825 9.38867C160.599 10.2559 161.185 11.2812 161.583 12.4648C161.981 13.6367 162.181 14.9199 162.181 16.3145V16.6836C162.181 18.0664 161.981 19.3496 161.583 20.5332C161.185 21.7051 160.599 22.7305 159.825 23.6094C159.063 24.4766 158.126 25.1504 157.013 25.6309C155.899 26.1113 154.622 26.3516 153.181 26.3516C151.739 26.3516 150.456 26.1113 149.331 25.6309C148.218 25.1504 147.274 24.4766 146.501 23.6094C145.739 22.7305 145.159 21.7051 144.761 20.5332C144.362 19.3496 144.163 18.0664 144.163 16.6836ZM149.226 16.3145V16.6836C149.226 17.4805 149.296 18.2246 149.437 18.916C149.577 19.6074 149.8 20.2168 150.104 20.7441C150.421 21.2598 150.831 21.6641 151.335 21.957C151.839 22.25 152.454 22.3965 153.181 22.3965C153.884 22.3965 154.487 22.25 154.991 21.957C155.495 21.6641 155.899 21.2598 156.204 20.7441C156.509 20.2168 156.731 19.6074 156.872 18.916C157.024 18.2246 157.101 17.4805 157.101 16.6836V16.3145C157.101 15.541 157.024 14.8145 156.872 14.1348C156.731 13.4434 156.503 12.834 156.187 12.3066C155.882 11.7676 155.478 11.3457 154.974 11.041C154.47 10.7363 153.86 10.584 153.146 10.584C152.431 10.584 151.821 10.7363 151.317 11.041C150.825 11.3457 150.421 11.7676 150.104 12.3066C149.8 12.834 149.577 13.4434 149.437 14.1348C149.296 14.8145 149.226 15.541 149.226 16.3145ZM170.354 11.1289V26H165.292V6.98047H170.056L170.354 11.1289ZM176.085 6.85742L175.997 11.5508C175.751 11.5156 175.452 11.4863 175.101 11.4629C174.761 11.4277 174.45 11.4102 174.169 11.4102C173.454 11.4102 172.833 11.5039 172.306 11.6914C171.79 11.8672 171.356 12.1309 171.005 12.4824C170.665 12.834 170.407 13.2617 170.231 13.7656C170.067 14.2695 169.974 14.8438 169.95 15.4883L168.931 15.1719C168.931 13.9414 169.054 12.8105 169.3 11.7793C169.546 10.7363 169.903 9.82812 170.372 9.05469C170.853 8.28125 171.438 7.68359 172.13 7.26172C172.821 6.83984 173.612 6.62891 174.503 6.62891C174.784 6.62891 175.071 6.65234 175.364 6.69922C175.657 6.73438 175.897 6.78711 176.085 6.85742ZM191.463 12.5381V6.25391L189.119 12.5381H188.357L186.028 6.09277V12.5381H185.12V4.67188H186.263L188.738 11.2197L191.229 4.67188H192.356V12.5381H191.463ZM183.89 4.67188V5.58008H181.458V12.5381H180.535V5.58008H178.118V4.67188H183.89Z" fill="#0B232B"/>
<path d="M41.373 44.3711H43.8145C43.7363 45.3021 43.4759 46.1322 43.0332 46.8613C42.5905 47.584 41.9688 48.1536 41.168 48.5703C40.3672 48.987 39.3939 49.1953 38.248 49.1953C37.3691 49.1953 36.5781 49.0391 35.875 48.7266C35.1719 48.4076 34.5697 47.9583 34.0684 47.3789C33.5671 46.793 33.1829 46.0866 32.916 45.2598C32.6556 44.4329 32.5254 43.5085 32.5254 42.4863V41.3047C32.5254 40.2826 32.6589 39.3581 32.9258 38.5312C33.1992 37.7044 33.5898 36.998 34.0977 36.4121C34.6055 35.8197 35.2142 35.3672 35.9238 35.0547C36.64 34.7422 37.444 34.5859 38.3359 34.5859C39.4688 34.5859 40.4258 34.7943 41.207 35.2109C41.9883 35.6276 42.5938 36.2038 43.0234 36.9395C43.4596 37.6751 43.7266 38.5182 43.8242 39.4688H41.3828C41.3177 38.8568 41.1745 38.3327 40.9531 37.8965C40.7383 37.4603 40.4193 37.1283 39.9961 36.9004C39.5729 36.666 39.0195 36.5488 38.3359 36.5488C37.776 36.5488 37.2878 36.653 36.8711 36.8613C36.4544 37.0697 36.1061 37.3757 35.8262 37.7793C35.5462 38.1829 35.3346 38.681 35.1914 39.2734C35.0547 39.8594 34.9863 40.5299 34.9863 41.2852V42.4863C34.9863 43.2025 35.0482 43.8535 35.1719 44.4395C35.3021 45.0189 35.4974 45.5169 35.7578 45.9336C36.0247 46.3503 36.3633 46.6725 36.7734 46.9004C37.1836 47.1283 37.6751 47.2422 38.248 47.2422C38.9447 47.2422 39.5078 47.1315 39.9375 46.9102C40.3737 46.6888 40.7025 46.3665 40.9238 45.9434C41.1517 45.5137 41.3014 44.9896 41.373 44.3711ZM48.873 47.8477L51.7441 38.4336H54.2637L50.0254 50.6113C49.9277 50.8717 49.8008 51.1549 49.6445 51.4609C49.4883 51.7669 49.2832 52.0566 49.0293 52.3301C48.7819 52.61 48.4727 52.8346 48.1016 53.0039C47.7305 53.1797 47.2812 53.2676 46.7539 53.2676C46.5456 53.2676 46.3438 53.248 46.1484 53.209C45.9596 53.1764 45.7806 53.1406 45.6113 53.1016L45.6016 51.3047C45.6667 51.3112 45.7448 51.3177 45.8359 51.3242C45.9336 51.3307 46.0117 51.334 46.0703 51.334C46.4609 51.334 46.7865 51.2852 47.0469 51.1875C47.3073 51.0964 47.5189 50.9466 47.6816 50.7383C47.8509 50.5299 47.9941 50.25 48.1113 49.8984L48.873 47.8477ZM47.252 38.4336L49.7617 46.3438L50.1816 48.8242L48.5508 49.2441L44.7129 38.4336H47.252ZM55.6211 34H57.9746V46.7441L57.75 49H55.6211V34ZM64.8691 43.6191V43.8242C64.8691 44.6055 64.7812 45.3249 64.6055 45.9824C64.4362 46.6335 64.1758 47.1999 63.8242 47.6816C63.4792 48.1634 63.0495 48.5378 62.5352 48.8047C62.0273 49.0651 61.4382 49.1953 60.7676 49.1953C60.11 49.1953 59.5371 49.0716 59.0488 48.8242C58.5605 48.5768 58.1504 48.2253 57.8184 47.7695C57.4928 47.3138 57.2292 46.7702 57.0273 46.1387C56.8255 45.5072 56.6823 44.8105 56.5977 44.0488V43.3945C56.6823 42.6263 56.8255 41.9297 57.0273 41.3047C57.2292 40.6732 57.4928 40.1296 57.8184 39.6738C58.1504 39.2116 58.5573 38.8568 59.0391 38.6094C59.5273 38.362 60.097 38.2383 60.748 38.2383C61.4251 38.2383 62.0208 38.3685 62.5352 38.6289C63.056 38.8893 63.4889 39.2604 63.834 39.7422C64.179 40.2174 64.4362 40.7839 64.6055 41.4414C64.7812 42.099 64.8691 42.8249 64.8691 43.6191ZM62.5156 43.8242V43.6191C62.5156 43.1439 62.4766 42.6979 62.3984 42.2812C62.3203 41.8581 62.1901 41.487 62.0078 41.168C61.832 40.849 61.5911 40.5983 61.2852 40.416C60.9857 40.2272 60.6113 40.1328 60.1621 40.1328C59.7454 40.1328 59.3874 40.2044 59.0879 40.3477C58.7884 40.4909 58.5378 40.6862 58.3359 40.9336C58.1341 41.181 57.9746 41.4674 57.8574 41.793C57.7467 42.1185 57.6719 42.4701 57.6328 42.8477V44.6152C57.6914 45.1035 57.8151 45.5527 58.0039 45.9629C58.1992 46.3665 58.4727 46.6921 58.8242 46.9395C59.1758 47.1803 59.6283 47.3008 60.1816 47.3008C60.6178 47.3008 60.9857 47.2129 61.2852 47.0371C61.5846 46.8613 61.8223 46.6172 61.998 46.3047C62.1803 45.9857 62.3105 45.6146 62.3887 45.1914C62.4733 44.7682 62.5156 44.3125 62.5156 43.8242ZM71.5195 49.1953C70.7383 49.1953 70.0319 49.0684 69.4004 48.8145C68.7754 48.554 68.2415 48.1927 67.7988 47.7305C67.3626 47.2682 67.0273 46.7246 66.793 46.0996C66.5586 45.4746 66.4414 44.8008 66.4414 44.0781V43.6875C66.4414 42.8607 66.5618 42.112 66.8027 41.4414C67.0436 40.7708 67.3789 40.1979 67.8086 39.7227C68.2383 39.2409 68.7461 38.873 69.332 38.6191C69.918 38.3652 70.5527 38.2383 71.2363 38.2383C71.9915 38.2383 72.6523 38.3652 73.2188 38.6191C73.7852 38.873 74.2539 39.2311 74.625 39.6934C75.0026 40.1491 75.2826 40.6927 75.4648 41.3242C75.6536 41.9557 75.748 42.6523 75.748 43.4141V44.4199H67.584V42.7305H73.4238V42.5449C73.4108 42.1217 73.3262 41.7246 73.1699 41.3535C73.0202 40.9824 72.7891 40.6829 72.4766 40.4551C72.1641 40.2272 71.7474 40.1133 71.2266 40.1133C70.8359 40.1133 70.4876 40.1979 70.1816 40.3672C69.8822 40.5299 69.6315 40.7676 69.4297 41.0801C69.2279 41.3926 69.0716 41.7702 68.9609 42.2129C68.8568 42.6491 68.8047 43.1406 68.8047 43.6875V44.0781C68.8047 44.5404 68.8665 44.9701 68.9902 45.3672C69.1204 45.7578 69.3092 46.0996 69.5566 46.3926C69.804 46.6855 70.1035 46.9167 70.4551 47.0859C70.8066 47.2487 71.207 47.3301 71.6562 47.3301C72.2227 47.3301 72.7272 47.2161 73.1699 46.9883C73.6126 46.7604 73.9967 46.4382 74.3223 46.0215L75.5625 47.2227C75.3346 47.5547 75.0384 47.8737 74.6738 48.1797C74.3092 48.4792 73.8633 48.7233 73.3359 48.9121C72.8151 49.1009 72.2096 49.1953 71.5195 49.1953ZM79.9473 40.4453V49H77.5938V38.4336H79.8398L79.9473 40.4453ZM83.1797 38.3652L83.1602 40.5527C83.0169 40.5267 82.8607 40.5072 82.6914 40.4941C82.5286 40.4811 82.3659 40.4746 82.2031 40.4746C81.7995 40.4746 81.4447 40.5332 81.1387 40.6504C80.8327 40.7611 80.5755 40.9238 80.3672 41.1387C80.1654 41.347 80.0091 41.6009 79.8984 41.9004C79.7878 42.1999 79.7227 42.5352 79.7031 42.9062L79.166 42.9453C79.166 42.2812 79.2311 41.666 79.3613 41.0996C79.4915 40.5332 79.6868 40.0352 79.9473 39.6055C80.2142 39.1758 80.5462 38.8405 80.9434 38.5996C81.347 38.3587 81.8125 38.2383 82.3398 38.2383C82.4831 38.2383 82.6361 38.2513 82.7988 38.2773C82.9681 38.3034 83.0951 38.3327 83.1797 38.3652ZM97.3496 45.3379C97.3496 45.0449 97.304 44.7845 97.2129 44.5566C97.1283 44.3288 96.9753 44.1204 96.7539 43.9316C96.5326 43.7428 96.2201 43.5605 95.8164 43.3848C95.4193 43.2025 94.9115 43.0169 94.293 42.8281C93.6159 42.6198 92.9909 42.3887 92.418 42.1348C91.8516 41.8743 91.3568 41.5749 90.9336 41.2363C90.5104 40.8913 90.1816 40.4974 89.9473 40.0547C89.7129 39.6055 89.5957 39.0879 89.5957 38.502C89.5957 37.9225 89.7161 37.3952 89.957 36.9199C90.2044 36.4447 90.5527 36.0345 91.002 35.6895C91.4577 35.3379 91.9948 35.0677 92.6133 34.8789C93.2318 34.6836 93.9154 34.5859 94.6641 34.5859C95.7188 34.5859 96.627 34.7812 97.3887 35.1719C98.1569 35.5625 98.7461 36.0866 99.1562 36.7441C99.5729 37.4017 99.7812 38.1276 99.7812 38.9219H97.3496C97.3496 38.4531 97.2487 38.0397 97.0469 37.6816C96.8516 37.3171 96.5521 37.0306 96.1484 36.8223C95.7513 36.6139 95.2467 36.5098 94.6348 36.5098C94.0553 36.5098 93.5736 36.5977 93.1895 36.7734C92.8053 36.9492 92.5189 37.1868 92.3301 37.4863C92.1413 37.7858 92.0469 38.1243 92.0469 38.502C92.0469 38.7689 92.1087 39.013 92.2324 39.2344C92.3561 39.4492 92.5449 39.651 92.7988 39.8398C93.0527 40.0221 93.3717 40.1947 93.7559 40.3574C94.14 40.5202 94.5924 40.6764 95.1133 40.8262C95.901 41.0605 96.5879 41.321 97.1738 41.6074C97.7598 41.8874 98.248 42.2064 98.6387 42.5645C99.0293 42.9225 99.3223 43.3294 99.5176 43.7852C99.7129 44.2344 99.8105 44.7454 99.8105 45.3184C99.8105 45.9173 99.6901 46.4577 99.4492 46.9395C99.2083 47.4147 98.8633 47.8216 98.4141 48.1602C97.9714 48.4922 97.4375 48.7493 96.8125 48.9316C96.194 49.1074 95.5039 49.1953 94.7422 49.1953C94.0586 49.1953 93.3848 49.1042 92.7207 48.9219C92.0632 48.7396 91.4642 48.4629 90.9238 48.0918C90.3835 47.7142 89.9538 47.2454 89.6348 46.6855C89.3158 46.1191 89.1562 45.4583 89.1562 44.7031H91.6074C91.6074 45.1654 91.6855 45.5592 91.8418 45.8848C92.0046 46.2103 92.2292 46.4772 92.5156 46.6855C92.8021 46.8874 93.1341 47.0371 93.5117 47.1348C93.8958 47.2324 94.306 47.2812 94.7422 47.2812C95.3151 47.2812 95.7936 47.1999 96.1777 47.0371C96.5684 46.8743 96.8613 46.6465 97.0566 46.3535C97.252 46.0605 97.3496 45.722 97.3496 45.3379ZM106.402 49.1953C105.621 49.1953 104.915 49.0684 104.283 48.8145C103.658 48.554 103.124 48.1927 102.682 47.7305C102.245 47.2682 101.91 46.7246 101.676 46.0996C101.441 45.4746 101.324 44.8008 101.324 44.0781V43.6875C101.324 42.8607 101.445 42.112 101.686 41.4414C101.926 40.7708 102.262 40.1979 102.691 39.7227C103.121 39.2409 103.629 38.873 104.215 38.6191C104.801 38.3652 105.436 38.2383 106.119 38.2383C106.874 38.2383 107.535 38.3652 108.102 38.6191C108.668 38.873 109.137 39.2311 109.508 39.6934C109.885 40.1491 110.165 40.6927 110.348 41.3242C110.536 41.9557 110.631 42.6523 110.631 43.4141V44.4199H102.467V42.7305H108.307V42.5449C108.294 42.1217 108.209 41.7246 108.053 41.3535C107.903 40.9824 107.672 40.6829 107.359 40.4551C107.047 40.2272 106.63 40.1133 106.109 40.1133C105.719 40.1133 105.37 40.1979 105.064 40.3672C104.765 40.5299 104.514 40.7676 104.312 41.0801C104.111 41.3926 103.954 41.7702 103.844 42.2129C103.74 42.6491 103.688 43.1406 103.688 43.6875V44.0781C103.688 44.5404 103.749 44.9701 103.873 45.3672C104.003 45.7578 104.192 46.0996 104.439 46.3926C104.687 46.6855 104.986 46.9167 105.338 47.0859C105.689 47.2487 106.09 47.3301 106.539 47.3301C107.105 47.3301 107.61 47.2161 108.053 46.9883C108.495 46.7604 108.88 46.4382 109.205 46.0215L110.445 47.2227C110.217 47.5547 109.921 47.8737 109.557 48.1797C109.192 48.4792 108.746 48.7233 108.219 48.9121C107.698 49.1009 107.092 49.1953 106.402 49.1953ZM116.783 47.3203C117.167 47.3203 117.512 47.2454 117.818 47.0957C118.131 46.9395 118.382 46.7246 118.57 46.4512C118.766 46.1777 118.873 45.862 118.893 45.5039H121.109C121.096 46.1875 120.895 46.8092 120.504 47.3691C120.113 47.929 119.596 48.375 118.951 48.707C118.307 49.0326 117.594 49.1953 116.812 49.1953C116.005 49.1953 115.302 49.0586 114.703 48.7852C114.104 48.5052 113.606 48.1211 113.209 47.6328C112.812 47.1445 112.512 46.5814 112.311 45.9434C112.115 45.3053 112.018 44.6217 112.018 43.8926V43.5508C112.018 42.8216 112.115 42.138 112.311 41.5C112.512 40.8555 112.812 40.2891 113.209 39.8008C113.606 39.3125 114.104 38.9316 114.703 38.6582C115.302 38.3783 116.002 38.2383 116.803 38.2383C117.649 38.2383 118.391 38.4076 119.029 38.7461C119.667 39.0781 120.169 39.5436 120.533 40.1426C120.904 40.735 121.096 41.4251 121.109 42.2129H118.893C118.873 41.8223 118.775 41.4707 118.6 41.1582C118.43 40.8392 118.189 40.5853 117.877 40.3965C117.571 40.2077 117.203 40.1133 116.773 40.1133C116.298 40.1133 115.904 40.2109 115.592 40.4062C115.279 40.5951 115.035 40.8555 114.859 41.1875C114.684 41.513 114.557 41.8809 114.479 42.291C114.407 42.6947 114.371 43.1146 114.371 43.5508V43.8926C114.371 44.3288 114.407 44.752 114.479 45.1621C114.55 45.5723 114.674 45.9401 114.85 46.2656C115.032 46.5846 115.279 46.8418 115.592 47.0371C115.904 47.2259 116.301 47.3203 116.783 47.3203ZM129.273 46.5098V38.4336H131.637V49H129.41L129.273 46.5098ZM129.605 44.3125L130.396 44.293C130.396 45.0026 130.318 45.6569 130.162 46.2559C130.006 46.8483 129.765 47.3659 129.439 47.8086C129.114 48.2448 128.697 48.5866 128.189 48.834C127.682 49.0749 127.073 49.1953 126.363 49.1953C125.849 49.1953 125.377 49.1204 124.947 48.9707C124.518 48.821 124.146 48.5898 123.834 48.2773C123.528 47.9648 123.29 47.5579 123.121 47.0566C122.952 46.5553 122.867 45.9564 122.867 45.2598V38.4336H125.221V45.2793C125.221 45.6634 125.266 45.9857 125.357 46.2461C125.449 46.5 125.572 46.7051 125.729 46.8613C125.885 47.0176 126.067 47.1283 126.275 47.1934C126.484 47.2585 126.705 47.291 126.939 47.291C127.61 47.291 128.137 47.1608 128.521 46.9004C128.912 46.6335 129.189 46.2754 129.352 45.8262C129.521 45.377 129.605 44.8724 129.605 44.3125ZM136.412 40.4453V49H134.059V38.4336H136.305L136.412 40.4453ZM139.645 38.3652L139.625 40.5527C139.482 40.5267 139.326 40.5072 139.156 40.4941C138.993 40.4811 138.831 40.4746 138.668 40.4746C138.264 40.4746 137.91 40.5332 137.604 40.6504C137.298 40.7611 137.04 40.9238 136.832 41.1387C136.63 41.347 136.474 41.6009 136.363 41.9004C136.253 42.1999 136.188 42.5352 136.168 42.9062L135.631 42.9453C135.631 42.2812 135.696 41.666 135.826 41.0996C135.956 40.5332 136.152 40.0352 136.412 39.6055C136.679 39.1758 137.011 38.8405 137.408 38.5996C137.812 38.3587 138.277 38.2383 138.805 38.2383C138.948 38.2383 139.101 38.2513 139.264 38.2773C139.433 38.3034 139.56 38.3327 139.645 38.3652ZM143.639 38.4336V49H141.275V38.4336H143.639ZM141.119 35.6602C141.119 35.3021 141.236 35.0059 141.471 34.7715C141.712 34.5306 142.044 34.4102 142.467 34.4102C142.883 34.4102 143.212 34.5306 143.453 34.7715C143.694 35.0059 143.814 35.3021 143.814 35.6602C143.814 36.0117 143.694 36.3047 143.453 36.5391C143.212 36.7734 142.883 36.8906 142.467 36.8906C142.044 36.8906 141.712 36.7734 141.471 36.5391C141.236 36.3047 141.119 36.0117 141.119 35.6602ZM151.061 38.4336V40.1523H145.104V38.4336H151.061ZM146.822 35.8457H149.176V46.0801C149.176 46.4056 149.221 46.6562 149.312 46.832C149.41 47.0013 149.544 47.1152 149.713 47.1738C149.882 47.2324 150.081 47.2617 150.309 47.2617C150.471 47.2617 150.628 47.252 150.777 47.2324C150.927 47.2129 151.048 47.1934 151.139 47.1738L151.148 48.9707C150.953 49.0293 150.725 49.0814 150.465 49.127C150.211 49.1725 149.918 49.1953 149.586 49.1953C149.046 49.1953 148.567 49.1009 148.15 48.9121C147.734 48.7168 147.408 48.401 147.174 47.9648C146.939 47.5286 146.822 46.9492 146.822 46.2266V35.8457ZM155.943 47.8477L158.814 38.4336H161.334L157.096 50.6113C156.998 50.8717 156.871 51.1549 156.715 51.4609C156.559 51.7669 156.354 52.0566 156.1 52.3301C155.852 52.61 155.543 52.8346 155.172 53.0039C154.801 53.1797 154.352 53.2676 153.824 53.2676C153.616 53.2676 153.414 53.248 153.219 53.209C153.03 53.1764 152.851 53.1406 152.682 53.1016L152.672 51.3047C152.737 51.3112 152.815 51.3177 152.906 51.3242C153.004 51.3307 153.082 51.334 153.141 51.334C153.531 51.334 153.857 51.2852 154.117 51.1875C154.378 51.0964 154.589 50.9466 154.752 50.7383C154.921 50.5299 155.064 50.25 155.182 49.8984L155.943 47.8477ZM154.322 38.4336L156.832 46.3438L157.252 48.8242L155.621 49.2441L151.783 38.4336H154.322Z" fill="#636466"/>
</svg>
